<?xml version="1.0" encoding="UTF-8" standalone="no"?>
<!DOCTYPE svg PUBLIC "-//W3C//DTD SVG 1.1//EN" "http://www.w3.org/Graphics/SVG/1.1/DTD/svg11.dtd">
<svg width="100%" height="100%" viewBox="0 0 800 800" version="1.1" xmlns="http://www.w3.org/2000/svg" xmlns:xlink="http://www.w3.org/1999/xlink" xml:space="preserve" xmlns:serif="http://www.serif.com/" style="fill-rule:evenodd;clip-rule:evenodd;stroke-linejoin:round;stroke-miterlimit:2;">
    <rect id="Artboard1" x="0" y="0" width="800" height="800" style="fill:none;"/>
    <g id="Artboard11" serif:id="Artboard1">
        <g transform="matrix(4.21521,0,0,4.21521,-21.7516,-19.6359)">
            <circle cx="25" cy="49" r="1.8" style="fill:rgb(26,26,26);"/>
            <circle cx="40" cy="52" r="1.8" style="fill:rgb(26,26,26);"/>
            <circle cx="55" cy="55" r="1.8" style="fill:rgb(26,26,26);"/>
            <circle cx="70" cy="58" r="1.8" style="fill:rgb(26,26,26);"/>
            <circle cx="85" cy="61" r="1.8" style="fill:rgb(26,26,26);"/>
            <circle cx="100" cy="64" r="1.8" style="fill:rgb(26,26,26);"/>
            <circle cx="115" cy="67" r="1.8" style="fill:rgb(26,26,26);"/>
            <circle cx="130" cy="70" r="1.8" style="fill:rgb(26,26,26);"/>
            <circle cx="145" cy="73" r="1.8" style="fill:rgb(26,26,26);"/>
            <circle cx="30" cy="62" r="1.8" style="fill:rgb(26,26,26);"/>
            <circle cx="45" cy="65" r="1.8" style="fill:rgb(26,26,26);"/>
            <circle cx="60" cy="68" r="1.8" style="fill:rgb(26,26,26);"/>
            <circle cx="75" cy="71" r="1.8" style="fill:rgb(26,26,26);"/>
            <circle cx="90" cy="74" r="1.8" style="fill:rgb(26,26,26);"/>
            <circle cx="105" cy="77" r="1.8" style="fill:rgb(26,26,26);"/>
            <circle cx="120" cy="80" r="1.8" style="fill:rgb(26,26,26);"/>
            <circle cx="135" cy="83" r="1.8" style="fill:rgb(26,26,26);"/>
            <circle cx="150" cy="86" r="1.8" style="fill:rgb(26,26,26);"/>
            <circle cx="35" cy="75" r="1.8" style="fill:rgb(26,26,26);"/>
            <circle cx="50" cy="78" r="1.8" style="fill:rgb(26,26,26);"/>
            <circle cx="65" cy="81" r="1.8" style="fill:rgb(26,26,26);"/>
            <circle cx="80" cy="84" r="1.8" style="fill:rgb(26,26,26);"/>
            <circle cx="95" cy="87" r="1.8" style="fill:rgb(26,26,26);"/>
            <circle cx="110" cy="90" r="1.8" style="fill:rgb(26,26,26);"/>
            <circle cx="125" cy="93" r="1.8" style="fill:rgb(26,26,26);"/>
            <circle cx="140" cy="96" r="1.8" style="fill:rgb(26,26,26);"/>
            <circle cx="155" cy="99" r="1.8" style="fill:rgb(26,26,26);"/>
            <circle cx="40" cy="88" r="1.8" style="fill:rgb(26,26,26);"/>
            <circle cx="55" cy="91" r="1.8" style="fill:rgb(26,26,26);"/>
            <circle cx="70" cy="94" r="1.8" style="fill:rgb(26,26,26);"/>
            <circle cx="85" cy="97" r="1.8" style="fill:rgb(26,26,26);"/>
            <circle cx="100" cy="100" r="1.8" style="fill:rgb(26,26,26);"/>
            <circle cx="115" cy="103" r="1.8" style="fill:rgb(26,26,26);"/>
            <circle cx="130" cy="106" r="1.8" style="fill:rgb(26,26,26);"/>
            <circle cx="145" cy="109" r="1.8" style="fill:rgb(26,26,26);"/>
            <circle cx="160" cy="112" r="1.8" style="fill:rgb(26,26,26);"/>
            <circle cx="45" cy="101" r="1.8" style="fill:rgb(26,26,26);"/>
            <circle cx="60" cy="104" r="1.8" style="fill:rgb(26,26,26);"/>
            <circle cx="75" cy="107" r="1.8" style="fill:rgb(26,26,26);"/>
            <circle cx="90" cy="110" r="1.8" style="fill:rgb(26,26,26);"/>
            <circle cx="105" cy="113" r="1.8" style="fill:rgb(26,26,26);"/>
            <circle cx="120" cy="116" r="1.8" style="fill:rgb(26,26,26);"/>
            <circle cx="135" cy="119" r="1.8" style="fill:rgb(26,26,26);"/>
            <circle cx="150" cy="122" r="1.8" style="fill:rgb(26,26,26);"/>
            <circle cx="165" cy="125" r="1.8" style="fill:rgb(26,26,26);"/>
            <circle cx="50" cy="114" r="1.8" style="fill:rgb(26,26,26);"/>
            <circle cx="65" cy="117" r="1.8" style="fill:rgb(26,26,26);"/>
            <circle cx="80" cy="120" r="1.8" style="fill:rgb(26,26,26);"/>
            <circle cx="95" cy="123" r="1.8" style="fill:rgb(26,26,26);"/>
            <circle cx="110" cy="126" r="1.8" style="fill:rgb(26,26,26);"/>
            <circle cx="125" cy="129" r="1.8" style="fill:rgb(26,26,26);"/>
            <circle cx="140" cy="132" r="1.8" style="fill:rgb(26,26,26);"/>
            <circle cx="155" cy="135" r="1.8" style="fill:rgb(26,26,26);"/>
            <circle cx="170" cy="138" r="1.8" style="fill:rgb(26,26,26);"/>
            <circle cx="55" cy="127" r="1.8" style="fill:rgb(26,26,26);"/>
            <circle cx="70" cy="130" r="1.8" style="fill:rgb(26,26,26);"/>
            <circle cx="85" cy="133" r="1.8" style="fill:rgb(26,26,26);"/>
            <circle cx="100" cy="136" r="1.8" style="fill:rgb(26,26,26);"/>
            <circle cx="115" cy="139" r="1.8" style="fill:rgb(26,26,26);"/>
            <circle cx="130" cy="142" r="1.8" style="fill:rgb(26,26,26);"/>
            <circle cx="145" cy="145" r="1.8" style="fill:rgb(26,26,26);"/>
            <circle cx="160" cy="148" r="1.8" style="fill:rgb(26,26,26);"/>
            <circle cx="175" cy="151" r="1.8" style="fill:rgb(26,26,26);"/>
        </g>
    </g>
</svg>
