<?xml version="1.0" encoding="UTF-8" standalone="no"?>
<!DOCTYPE svg PUBLIC "-//W3C//DTD SVG 1.1//EN" "http://www.w3.org/Graphics/SVG/1.1/DTD/svg11.dtd">
<svg width="100%" height="100%" viewBox="0 0 1788 1788" version="1.1" xmlns="http://www.w3.org/2000/svg" xmlns:xlink="http://www.w3.org/1999/xlink" xml:space="preserve" xmlns:serif="http://www.serif.com/" style="fill-rule:evenodd;clip-rule:evenodd;stroke-linejoin:round;stroke-miterlimit:2;">
    <g id="Artboard3" transform="matrix(1,0,0,1,-3593.2,117.368)">
        <g>
            <rect x="3593.2" y="-117.367" width="1787.57" height="1787.57" style="fill:rgb(75,75,75);fill-opacity:0;stroke:rgb(75,75,75);stroke-width:100px;"/>
            <g transform="matrix(2.14728,0,0,2.14728,-4382.4,84.949)">
                <g transform="matrix(1,0,0,1,3586.2,-68.4429)">
                    <path d="M494.185,532.516L436.294,532.516L436.294,343.457L360.184,532.516L335.084,532.516L258.975,343.457L258.975,532.516L201.488,532.516L201.488,262.49L282.051,262.49L347.634,425.639L413.218,262.49L494.185,262.49L494.185,532.516Z" style="fill:rgb(75,75,75);fill-rule:nonzero;"/>
                    <g transform="matrix(1,0,0,1,-1306,0)">
                        <path d="M2201.79,532.516L2136.2,532.516L2119.61,486.769L2003.82,486.769L1986.82,532.516L1921.24,532.516L2025.68,262.49L2097.74,262.49L2201.79,532.516ZM2103.82,436.165L2061.72,319.976L2019.61,436.165L2103.82,436.165Z" style="fill:rgb(75,75,75);fill-rule:nonzero;"/>
                    </g>
                </g>
                <g transform="matrix(1,0,0,1,2641.91,-69.2523)">
                    <path d="M1511.14,532.516L1453.65,532.516L1560.65,262.49L1618.14,262.49L1511.14,532.516Z" style="fill:rgb(75,75,75);fill-rule:nonzero;"/>
                </g>
            </g>
        </g>
    </g>
</svg>
