<?xml version="1.0" encoding="UTF-8" standalone="no"?>
<!DOCTYPE svg PUBLIC "-//W3C//DTD SVG 1.1//EN" "http://www.w3.org/Graphics/SVG/1.1/DTD/svg11.dtd">
<svg width="100%" height="100%" viewBox="0 0 200 25" version="1.1" xmlns="http://www.w3.org/2000/svg" xmlns:xlink="http://www.w3.org/1999/xlink" xml:space="preserve" xmlns:serif="http://www.serif.com/" style="fill-rule:evenodd;clip-rule:evenodd;stroke-linejoin:round;stroke-miterlimit:2;">
    <g>
        <path d="M29.5,2.5C27.3,1.7 23.5,0.4 17.8,0.4C7.4,0.4 0,5.7 0,12.3C0,19.4 6.3,24 17.7,24C23.5,24 27.1,22.6 29.3,21.7L29.4,21.6L29.4,16.1C29.4,16 29.4,16 29.3,16L28.9,16C28.8,16 28.8,16 28.8,16.1C27.4,21.2 23.1,23.1 17.8,23.1C10.5,23.1 5.4,19 5.4,12.3C5.4,5.6 9.8,1.5 17.8,1.5C23.5,1.5 27.1,3.9 28.5,7.9C28.5,8 28.6,8 28.6,8L29,8C29.1,8 29.1,7.9 29.1,7.9L29.6,2.7C29.6,2.6 29.6,2.5 29.5,2.5Z" style="fill:white;fill-rule:nonzero;"/>
        <path d="M59.6,16.3L59.1,16.3C59.1,16.3 59,16.3 59,16.4C58.5,17.4 57.9,18.2 57.3,19C56.7,19.8 55.9,20.5 55.1,21C54.2,21.6 53.2,22 52,22.3C50.8,22.6 49.4,22.8 47.7,22.8L46.8,22.8C45.6,22.8 44.7,22.7 43.9,22.5C43.2,22.3 42.6,22 42.3,21.6C41.9,21.2 41.7,20.7 41.6,20.1C41.5,19.5 41.4,18.7 41.4,17.8L41.4,5.6C41.4,5.2 41.4,4.9 41.5,4.6C41.5,4.3 41.6,4 41.7,3.7C41.8,3.4 41.9,3.2 42,3C42.1,2.8 42.3,2.6 42.4,2.5C42.6,2.3 42.8,2.2 43,2.1C43.2,2 43.5,1.9 43.8,1.8C44.1,1.7 44.3,1.7 44.7,1.6C44.7,1.6 44.8,1.6 44.8,1.5L44.8,1C44.8,0.9 44.7,0.9 44.7,0.9L33.9,0.9C33.9,0.9 33.8,0.9 33.8,1L33.8,1.5C33.8,1.5 33.8,1.6 33.9,1.6C34.2,1.6 34.5,1.7 34.7,1.8C35,1.9 35.2,2 35.5,2.1C35.7,2.2 35.9,2.4 36.1,2.5C36.3,2.7 36.4,2.8 36.5,3C36.6,3.2 36.7,3.5 36.8,3.7C37,4 37,4.3 37.1,4.6C37.1,4.9 37.2,5.2 37.2,5.6L37.2,18.9C37.2,19.3 37.2,19.6 37.1,19.9C37.1,20.2 37,20.5 36.9,20.8C36.8,21.1 36.7,21.3 36.6,21.5C36.5,21.7 36.3,21.9 36.2,22C36,22.2 35.8,22.3 35.6,22.4C35.4,22.5 35.1,22.6 34.8,22.7C34.5,22.8 33.9,22.9 33.9,22.9C33.9,22.9 33.8,22.9 33.8,23L33.8,23.4C33.8,23.5 33.9,23.5 33.9,23.5L57.2,23.5C57.3,23.5 57.3,23.4 57.3,23.4L59,18L59.5,16.3C59.7,16.5 59.7,16.3 59.6,16.3Z" style="fill:white;fill-rule:nonzero;"/>
        <path d="M90.7,22.9C88.3,22.6 86.7,20.5 85.1,17.6L78.2,5.9C76.6,3.2 74.8,0.1 74.8,0.1L74.5,0.1C74.4,0.1 74.4,0.1 74.4,0.2C73.7,1.4 72.9,2.8 70.7,6.4L64.6,16.3C61.8,20.9 60,22.7 58.9,23C58.8,23 58.8,23.1 58.8,23.1L58.8,23.6C58.8,23.7 58.9,23.7 58.9,23.7C59.7,23.7 60.7,23.6 62.5,23.6C64.3,23.6 66.9,23.7 66.9,23.7C66.9,23.7 67,23.7 67,23.6L67,23.1C67,23 67,23 66.9,23C65,22.5 64.3,21.6 64.3,20.3C64.3,19.1 65,17.6 66,15.9L66.8,14.6L66.9,14.5L78.2,14.5C78.3,14.5 78.3,14.5 78.4,14.6L79.9,17.1C80.9,18.8 81.7,20 81.7,21.1C81.7,22.1 80.9,22.7 78.9,23C78.8,23 78.8,23.1 78.8,23.1L78.8,23.6C78.8,23.7 78.9,23.7 78.9,23.7C81,23.7 82.9,23.6 84.8,23.6C86.6,23.6 90.7,23.7 90.7,23.7C90.7,23.7 90.8,23.7 90.8,23.6L90.8,23.2C90.8,23.1 90.8,23 90.7,22.9ZM77.5,13.4L67.6,13.4C67.5,13.4 67.4,13.3 67.5,13.2L68.7,11.3C70.9,7.6 71.8,6.2 72.5,5L72.7,5C73.3,6 74.4,7.8 76.5,11.3L77.6,13.2C77.7,13.2 77.6,13.4 77.5,13.4Z" style="fill:white;fill-rule:nonzero;"/>
        <path d="M196.3,12.2C194.2,11.2 191.5,10.7 188.6,10.2L186.3,9.8C181.4,9 179.3,7.9 179.3,5.3C179.3,2.9 182,1.4 187.3,1.4C193,1.4 195.6,4 196.5,7.3C196.5,7.4 196.6,7.4 196.6,7.4L197.1,7.4C197.2,7.4 197.2,7.3 197.2,7.3L197.7,2.1C194.8,1.2 191.7,0.5 187.4,0.5C180.5,0.5 175.3,2.6 175.3,6.9C175.3,11.3 179.5,12.6 185.1,13.6L187.3,14C192.3,14.9 196.2,15.5 196.2,18.8C196.2,21.8 192.1,23.1 186.9,23.1C182,23.1 177.4,21.1 175.9,16.1C175.9,16 175.8,16 175.8,16L175.4,16C175.3,16 175.3,16 175.3,16.1L174.8,21.8L174.8,21.9C176.4,22.6 180.8,24.1 187,24.1C195.2,24.1 200.3,21.9 200.3,17.2C200,14.8 198.5,13.3 196.3,12.2Z" style="fill:white;fill-rule:nonzero;"/>
        <path d="M172,0.8C170.5,0.8 168.9,0.9 167.5,0.9C166,0.9 164.6,0.9 162.8,0.8C162.7,0.8 162.7,0.8 162.7,0.9L162.7,1.4C162.7,1.5 162.7,1.5 162.8,1.5C164.8,1.7 165.8,2.4 166.3,3.3C167.1,4.6 167.1,6.5 167.1,9.2L167.1,17.4C167.1,17.5 167,17.5 166.9,17.5C166.5,17.1 165.2,15.9 162.4,13.5L154.1,6.3C150.8,3.5 148.5,1.4 148,0.9L144.3,0.9C142.9,0.9 142.5,0.9 140.3,0.8C140.2,0.8 140.2,0.9 140.2,0.9L140.2,1.4C140.2,1.5 140.3,1.5 140.3,1.5C141.5,1.7 142.9,2.1 144.1,3.3L144.1,15C144.1,17.7 144.1,19.6 143.3,20.9C142.7,21.8 141.7,22.5 140.1,22.8C140,22.8 140,22.9 140,22.9L140,23.4C140,23.5 140.1,23.5 140.1,23.5C141.6,23.5 142.8,23.4 144.1,23.4C145.6,23.4 147.4,23.4 149.2,23.5C149.2,23.5 149.3,23.5 149.3,23.4L149.3,23C149.3,22.9 149.3,22.9 149.2,22.9C147.6,22.6 146.5,21.9 145.9,21C145.1,19.7 145.1,17.8 145.1,15.1L145.1,12.3C145.1,8.4 145,5.2 145,4.4C145,4.3 145.1,4.3 145.2,4.3C145.2,4.3 148.4,7.2 152.2,10.4L159.9,17.1C162,18.9 167.8,24 167.8,24L167.9,24.1C168,24.1 168.1,24.1 168.1,24L168.1,9.3C168.1,6.6 168.1,4.7 168.9,3.4C169.5,2.5 170.3,1.9 171.9,1.6C172,1.6 172,1.5 172,1.5L172,1C172.1,0.9 172.1,0.8 172,0.8Z" style="fill:white;fill-rule:nonzero;"/>
        <path d="M121.9,23C119.5,22.4 118.7,20.7 117.8,18.7L117.6,18.1C116.1,14.4 114.8,12.6 110.5,12.4C110.4,12.4 110.4,12.2 110.5,12.2C114.9,11.9 118.6,10.1 118.6,6.2C118.6,1.5 113.1,0.9 107,0.9L98,0.9C96.5,0.9 93.9,0.9 92,0.8C91.9,0.8 91.9,0.9 91.9,0.9L91.9,1.4C91.9,1.5 91.9,1.5 92,1.5C93.4,1.7 94.2,2.2 94.6,2.9C95.2,3.8 95.2,5 95.2,6.7L95.2,17.6C95.2,19.3 95.1,20.5 94.6,21.4C94.1,22.2 93.4,22.6 92,22.8C91.9,22.8 91.9,22.9 91.9,22.9L91.9,23.4C91.9,23.5 92,23.5 92,23.5C94.2,23.4 95.9,23.4 97.5,23.4C99.2,23.4 102.8,23.5 102.8,23.5C102.8,23.5 102.9,23.5 102.9,23.4L102.9,23C102.9,22.9 102.9,22.9 102.8,22.9C101.4,22.7 100.6,22.2 100.2,21.5C99.6,20.6 99.6,19.4 99.6,17.7L99.6,12.8C99.6,12.7 99.7,12.6 99.7,12.6L104.1,12.6C109.7,12.6 111.7,15 112.9,18.3C113.9,20.7 115.1,23.6 115.9,23.6L121.8,23.6C121.9,23.6 121.9,23.5 121.9,23.5L121.9,23ZM99.7,11.6C99.6,11.6 99.6,11.6 99.6,11.5L99.6,2C99.6,1.9 99.6,1.9 99.7,1.9C101,1.9 105.1,1.8 106,1.8C109.8,1.8 113.7,2.2 113.7,6.2C113.7,11.5 109,11.6 104.9,11.6L99.7,11.6Z" style="fill:white;fill-rule:nonzero;"/>
        <path d="M135.8,23.5L135.8,23.1C135.8,23 135.7,23 135.7,23C134.3,22.8 133.6,22.3 133.1,21.6C132.5,20.7 132.5,19.5 132.5,17.8L132.5,6.8C132.5,5.1 132.6,3.9 133.1,3C133.6,2.2 134.4,1.8 135.7,1.6L135.8,1.5L135.8,1C135.8,0.9 135.7,0.9 135.7,0.9C133.7,1 132.1,1 130.4,1C128.8,1 127.1,1 124.9,0.9C124.8,0.9 124.8,1 124.8,1L124.8,1.4C124.8,1.5 124.8,1.5 124.9,1.5C126.3,1.7 127,2.2 127.5,2.9C128.1,3.8 128.1,5 128.1,6.7L128.1,17.6C128.1,19.3 128,20.5 127.5,21.4C127,22.2 126.2,22.7 124.8,22.8L124.8,23.5C127,23.4 128.8,23.4 130.4,23.4C132.1,23.4 133.7,23.4 135.7,23.5C135.7,23.6 135.8,23.6 135.8,23.5Z" style="fill:white;fill-rule:nonzero;"/>
    </g>
</svg>
