<?xml version="1.0" encoding="UTF-8" standalone="no"?>
<!DOCTYPE svg PUBLIC "-//W3C//DTD SVG 1.1//EN" "http://www.w3.org/Graphics/SVG/1.1/DTD/svg11.dtd">
<svg width="100%" height="100%" viewBox="0 0 926 617" version="1.1" xmlns="http://www.w3.org/2000/svg" xmlns:xlink="http://www.w3.org/1999/xlink" xml:space="preserve" xmlns:serif="http://www.serif.com/" style="fill-rule:evenodd;clip-rule:evenodd;stroke-linejoin:round;stroke-miterlimit:2;">
    <g transform="matrix(1.38107,0,0,1.38107,-182.93,-95.2199)">
        <g transform="matrix(1,0,0,1,296.658,119.686)">
            <path d="M133.7,314.9C111.1,314.9 94.9,296.3 97.9,273.2L116,145.2C117.5,133.4 110.1,124.6 99.3,124.6C87.5,124.6 73.8,137.4 58.1,155.5L48.8,166.8L28.8,308.5L-12.4,308.5L10.7,145.2C12.2,133.4 4.8,124.6 -6,124.6C-17.3,124.6 -34.4,139.3 -47.2,155.5L-56,166.8L-76.1,308.6L-117.3,308.6L-93.8,140.4C-92.3,131.6 -99.2,124.7 -107,124.7C-115.8,124.7 -123.2,131.6 -124.7,140.4L-127.1,158.1L-138,158.1L-135.5,140.4C-132.1,117.4 -110.5,98.7 -87.9,98.7C-66.8,98.7 -49.7,114.9 -52.1,138.4L-39.8,124.2C-26.2,108.9 -8,94.1 11.6,94.1C36.1,94.1 53.3,115.7 52.3,139.7L66,123.1C76.8,110.8 97.4,94.2 117,94.2C143.5,94.2 161.1,115.8 157.7,142.8L139.1,273.3C138.1,282.1 144.5,289 152.8,289" style="fill:white;fill-rule:nonzero;"/>
        </g>
        <g transform="matrix(1,0,0,1,296.658,119.686)">
            <path d="M293.7,314.2L295.7,301L353.6,255.4C379.1,235.3 422.8,199 427.2,166.1C430.6,143.5 414,123.4 387,123.4C364.9,123.4 355.6,128.8 348.3,134.2C360.1,136.7 367.4,147.9 365.5,160.7C363,176.4 348.8,189.1 333.1,189.1C317.4,189.1 306.1,176.4 308.6,160.7C313.5,125.4 356.2,99.4 404.3,99.4C442.5,99.4 481.3,119.5 474.9,166.1C469.5,202.4 404.3,246.5 352.3,273.5L465.6,273.5L459.7,314.2L293.7,314.2Z" style="fill:white;fill-rule:nonzero;"/>
        </g>
        <g transform="matrix(1,0,0,1,296.658,119.686)">
            <path d="M266.8,321.2C246.2,321.2 233.9,305.5 227.1,291.3L188.8,212.8L174.6,314.8L133.4,314.8L173.6,25.4L215.3,25.4L189.8,206.9L272.2,155.4C264.4,150 259.4,140.7 261.4,129.9C263.4,113.7 279,100 294.8,100C311,100 322.7,113.7 320.8,129.9C318.3,141.7 310,151.5 299.2,158.4L229,203L271.2,284.9C273.2,288.8 278.1,292.3 284.9,292.3C293.2,292.3 303,285.9 304,275.6L306,261.9L316.8,261.9L314.4,279.6C310.9,303.1 288.9,321.2 266.8,321.2" style="fill:rgb(206,206,206);fill-rule:nonzero;"/>
        </g>
    </g>
</svg>
