<?xml version="1.0" encoding="UTF-8" standalone="no"?>
<!DOCTYPE svg PUBLIC "-//W3C//DTD SVG 1.1//EN" "http://www.w3.org/Graphics/SVG/1.1/DTD/svg11.dtd">
<svg width="100%" height="100%" viewBox="0 0 121 34" version="1.1" xmlns="http://www.w3.org/2000/svg" xmlns:xlink="http://www.w3.org/1999/xlink" xml:space="preserve" xmlns:serif="http://www.serif.com/" style="fill-rule:evenodd;clip-rule:evenodd;stroke-linejoin:round;stroke-miterlimit:2;">
    <g>
        <path d="M54.671,9.516C54.589,10.932 54.04,12.082 53.08,12.91C52.12,13.739 50.831,14.167 49.24,14.167C47.484,14.193 46.112,13.632 45.097,12.483C44.082,11.333 43.561,9.783 43.561,7.778L43.561,6.976C43.561,5.693 43.781,4.571 44.219,3.608C44.686,2.646 45.317,1.871 46.167,1.363C47.018,0.829 48.005,0.561 49.157,0.561C50.721,0.561 52.01,0.936 52.97,1.764C53.93,2.566 54.506,3.715 54.671,5.212L51.873,5.239C51.791,4.384 51.544,3.769 51.132,3.395C50.721,3.02 50.062,2.833 49.212,2.833C48.279,2.833 47.594,3.181 47.127,3.822C46.661,4.491 46.442,5.506 46.442,6.869L46.442,7.858C46.442,9.302 46.688,10.344 47.127,10.986C47.566,11.654 48.279,11.975 49.239,11.975C50.117,11.975 50.748,11.761 51.187,11.387C51.599,10.986 51.845,10.398 51.9,9.596L54.671,9.516Z" style="fill:rgb(75,75,75);fill-rule:nonzero;"/>
        <path d="M64.217,11.12L59.307,11.146L58.402,13.899L55.412,13.926L60.377,0.615L62.983,0.588L68.195,13.819L65.205,13.846L64.217,11.12ZM60.048,8.954L63.449,8.928L61.693,3.983L60.048,8.954Z" style="fill:rgb(75,75,75);fill-rule:nonzero;"/>
        <path d="M72.995,0.535L76.561,10.131L79.963,0.481L83.666,0.454L83.776,13.712L80.95,13.739L80.923,10.104L81.142,3.849L77.549,13.766L75.628,13.792L71.87,3.956L72.2,10.211L72.227,13.846L69.429,13.873L69.319,0.615L72.995,0.535Z" style="fill:rgb(75,75,75);fill-rule:nonzero;"/>
        <path d="M88.988,8.981L89.015,13.659L86.217,13.685L86.107,0.428L91.429,0.374C92.444,0.374 93.349,0.535 94.117,0.909C94.885,1.283 95.489,1.791 95.928,2.459C96.339,3.127 96.559,3.876 96.586,4.758C96.586,6.068 96.147,7.083 95.242,7.832C94.337,8.58 93.075,8.981 91.456,8.981L88.988,8.981ZM88.96,6.789L91.456,6.763C92.197,6.763 92.773,6.575 93.157,6.228C93.541,5.881 93.733,5.399 93.733,4.758C93.733,4.116 93.514,3.582 93.13,3.181C92.746,2.78 92.197,2.593 91.511,2.566L88.933,2.593L88.96,6.789Z" style="fill:rgb(75,75,75);fill-rule:nonzero;"/>
        <path d="M108.766,0.241L108.848,8.981C108.848,10.425 108.409,11.574 107.476,12.429C106.544,13.285 105.282,13.712 103.663,13.739C102.072,13.739 100.811,13.365 99.878,12.536C98.945,11.734 98.451,10.612 98.424,9.168L98.342,0.321L101.14,0.294L101.222,9.061C101.222,9.917 101.441,10.558 101.88,10.959C102.319,11.36 102.895,11.547 103.663,11.547C105.227,11.547 106.022,10.719 106.05,9.115L105.968,0.294L108.766,0.241Z" style="fill:rgb(75,75,75);fill-rule:nonzero;"/>
        <path d="M118.202,9.943C118.202,9.436 118.01,9.035 117.626,8.767C117.242,8.5 116.584,8.206 115.596,7.912C114.609,7.618 113.84,7.324 113.292,7.03C111.728,6.228 110.96,5.132 110.933,3.769C110.933,3.047 111.125,2.406 111.536,1.844C111.948,1.283 112.524,0.829 113.319,0.508C114.087,0.187 114.965,0.027 115.925,0C116.885,0 117.763,0.16 118.531,0.481C119.299,0.829 119.903,1.31 120.314,1.925C120.753,2.539 120.945,3.261 120.973,4.063L118.175,4.09C118.175,3.475 117.983,3.02 117.571,2.673C117.187,2.352 116.611,2.165 115.925,2.192C115.239,2.192 114.718,2.352 114.334,2.62C113.95,2.914 113.758,3.288 113.786,3.742C113.786,4.17 114.005,4.544 114.471,4.811C114.91,5.105 115.569,5.373 116.446,5.613C118.037,6.068 119.217,6.629 119.958,7.324C120.698,8.019 121.055,8.874 121.082,9.89C121.082,11.039 120.643,11.948 119.766,12.59C118.888,13.258 117.681,13.579 116.172,13.605C115.13,13.605 114.17,13.445 113.319,13.071C112.469,12.697 111.783,12.189 111.344,11.547C110.878,10.906 110.658,10.157 110.658,9.302L113.484,9.275C113.484,10.745 114.389,11.467 116.2,11.44C116.858,11.44 117.379,11.307 117.763,11.039C118.01,10.799 118.202,10.425 118.202,9.943Z" style="fill:rgb(75,75,75);fill-rule:nonzero;"/>
        <path d="M54.836,28.921C54.753,30.338 54.205,31.487 53.245,32.316C52.284,33.145 50.995,33.572 49.404,33.572C47.649,33.599 46.277,33.038 45.262,31.888C44.247,30.739 43.726,29.189 43.726,27.184L43.726,26.382C43.726,25.099 43.945,23.976 44.384,23.014C44.85,22.052 45.481,21.277 46.332,20.769C47.182,20.234 48.17,19.967 49.322,19.967C50.885,19.967 52.175,20.341 53.135,21.17C54.095,21.972 54.671,23.121 54.835,24.618L52.037,24.591C51.955,23.736 51.708,23.121 51.297,22.747C50.885,22.373 50.227,22.185 49.377,22.185C48.444,22.185 47.758,22.533 47.292,23.174C46.826,23.843 46.606,24.859 46.606,26.222L46.606,27.211C46.606,28.654 46.853,29.697 47.292,30.338C47.731,31.006 48.444,31.327 49.404,31.327C50.282,31.327 50.913,31.113 51.352,30.739C51.763,30.338 52.01,29.75 52.065,28.948L54.836,28.921Z" style="fill:rgb(75,75,75);fill-rule:nonzero;"/>
        <path d="M61.364,25.981L64.135,19.994L67.207,19.967L62.818,28.467L62.846,33.278L59.993,33.305L59.965,28.494L55.412,20.047L58.484,20.02L61.364,25.981Z" style="fill:rgb(75,75,75);fill-rule:nonzero;"/>
        <path d="M68.551,33.225L68.441,19.967L73.214,19.94C74.86,19.94 76.122,20.234 76.973,20.822C77.823,21.437 78.262,22.319 78.289,23.522C78.289,24.164 78.125,24.752 77.796,25.233C77.466,25.741 76.973,26.088 76.369,26.329C77.055,26.489 77.631,26.837 78.015,27.344C78.426,27.852 78.618,28.494 78.646,29.242C78.646,30.525 78.234,31.487 77.412,32.156C76.589,32.824 75.382,33.171 73.845,33.198L68.551,33.225ZM71.294,25.5L73.379,25.473C74.806,25.446 75.491,24.885 75.491,23.816C75.491,23.228 75.299,22.774 74.943,22.533C74.586,22.266 74.01,22.132 73.242,22.159L71.267,22.186L71.294,25.5ZM71.322,27.425L71.349,31.006L73.763,30.98C74.422,30.98 74.943,30.819 75.299,30.498C75.656,30.178 75.848,29.777 75.848,29.215C75.848,28.013 75.19,27.398 73.9,27.371L71.322,27.425Z" style="fill:rgb(75,75,75);fill-rule:nonzero;"/>
        <path d="M88.933,27.291L83.556,27.344L83.584,30.926L89.893,30.873L89.92,33.065L80.786,33.145L80.676,19.887L89.783,19.807L89.811,22.025L83.501,22.079L83.529,25.233L88.905,25.179L88.933,27.291Z" style="fill:rgb(75,75,75);fill-rule:nonzero;"/>
        <path d="M96.559,28.146L94.337,28.173L94.364,33.038L91.566,33.065L91.429,19.78L96.476,19.726C98.095,19.726 99.329,20.047 100.207,20.742C101.085,21.437 101.524,22.426 101.551,23.682C101.551,24.591 101.359,25.34 100.975,25.954C100.591,26.569 99.96,27.05 99.165,27.425L102.155,32.824L102.155,32.958L99.137,32.984L96.559,28.146ZM94.309,25.954L96.559,25.928C97.272,25.928 97.793,25.741 98.177,25.393C98.561,25.046 98.753,24.564 98.753,23.95C98.753,23.335 98.561,22.827 98.205,22.48C97.848,22.132 97.272,21.945 96.531,21.945L94.282,21.972L94.309,25.954Z" style="fill:rgb(75,75,75);fill-rule:nonzero;"/>
    </g>
    <path d="M7.297,26.516C5.623,25.072 3.072,25.099 1.426,26.569C-0.494,28.28 -0.466,31.22 1.481,32.904C3.155,34.347 5.706,34.321 7.352,32.851C9.272,31.167 9.244,28.2 7.297,26.516Z" style="fill:rgb(75,75,75);fill-rule:nonzero;"/>
    <path d="M29.983,25.259C29.544,25.206 26.636,24.859 24.249,22.827C24.222,22.8 24.222,22.8 24.195,22.774C21.561,19.887 21.479,15.53 24.003,12.563C24.167,12.376 24.332,12.189 24.524,12.002C26.938,9.623 30.147,9.168 30.614,9.115L30.641,9.115L30.614,9.115L30.696,9.115C31.738,9.008 32.781,8.527 33.521,7.671C34.948,6.068 34.948,3.662 33.521,2.058C31.821,0.16 28.858,0.107 27.102,1.871C26.362,2.593 25.95,3.528 25.868,4.464L25.868,4.544L25.868,4.517L25.868,4.544C25.813,5.025 25.429,8.153 23.015,10.531C22.85,10.692 22.658,10.879 22.466,11.013C19.641,13.391 15.471,13.552 12.454,11.387C12.426,11.36 12.399,11.36 12.399,11.333C12.07,11.093 11.741,10.799 11.494,10.451C9.738,8.259 9.382,5.8 9.354,5.399L9.354,5.373L9.354,5.399L9.354,5.346L9.354,5.373C9.244,4.357 8.751,3.341 7.873,2.593C6.227,1.203 3.758,1.203 2.112,2.593C0.165,4.25 0.11,7.137 1.92,8.847C2.661,9.569 3.621,9.97 4.608,10.05L4.581,10.05L4.636,10.05L4.608,10.05L4.636,10.05C4.718,10.05 4.883,10.077 5.13,10.104C9.052,10.745 12.152,13.712 12.865,17.508C12.92,17.748 12.92,17.909 12.948,17.989L12.975,17.962C13.057,18.951 13.496,19.94 14.264,20.689C15.032,21.41 15.992,21.838 17.008,21.891C17.09,21.891 17.254,21.918 17.501,21.945C21.424,22.586 24.551,25.553 25.264,29.376C25.319,29.616 25.319,29.777 25.347,29.857C25.429,30.846 25.895,31.808 26.691,32.557C28.364,34.107 31.025,34.107 32.698,32.557C34.509,30.873 34.536,28.093 32.781,26.409C31.958,25.741 30.97,25.34 29.983,25.259Z" style="fill:rgb(75,75,75);fill-rule:nonzero;"/>
    <path d="M25.264,29.937L25.264,29.991C25.292,29.991 25.292,29.964 25.264,29.937Z" style="fill:rgb(75,75,75);fill-rule:nonzero;"/>
    <path d="M12.865,18.042L12.865,18.096C12.893,18.096 12.893,18.096 12.865,18.042Z" style="fill:rgb(75,75,75);fill-rule:nonzero;"/>
</svg>
