<?xml version="1.0" encoding="UTF-8" standalone="no"?>
<!DOCTYPE svg PUBLIC "-//W3C//DTD SVG 1.1//EN" "http://www.w3.org/Graphics/SVG/1.1/DTD/svg11.dtd">
<svg width="100%" height="100%" viewBox="0 0 800 800" version="1.1" xmlns="http://www.w3.org/2000/svg" xmlns:xlink="http://www.w3.org/1999/xlink" xml:space="preserve" xmlns:serif="http://www.serif.com/" style="fill-rule:evenodd;clip-rule:evenodd;stroke-linejoin:round;stroke-miterlimit:2;">
    <rect id="Artboard1" x="0" y="0" width="800" height="800" style="fill:none;"/>
    <g id="Artboard11" serif:id="Artboard1">
        <g transform="matrix(3.39705,0,0,3.39705,66.8344,59.2697)">
            <circle cx="99.427" cy="106.24" r="0.404" style="fill:rgb(26,26,26);"/>
            <circle cx="106.022" cy="95.36" r="0.405" style="fill:rgb(26,26,26);"/>
            <circle cx="88.763" cy="99.52" r="0.412" style="fill:rgb(26,26,26);"/>
            <circle cx="95.388" cy="88.64" r="0.414" style="fill:rgb(26,26,26);"/>
            <circle cx="109.965" cy="112.96" r="0.425" style="fill:rgb(26,26,26);"/>
            <circle cx="116.61" cy="102.08" r="0.427" style="fill:rgb(26,26,26);"/>
            <circle cx="92.989" cy="117.12" r="0.433" style="fill:rgb(26,26,26);"/>
            <circle cx="112.359" cy="84.48" r="0.437" style="fill:rgb(26,26,26);"/>
            <circle cx="82.412" cy="110.4" r="0.44" style="fill:rgb(26,26,26);"/>
            <circle cx="101.874" cy="77.76" r="0.448" style="fill:rgb(26,26,26);"/>
            <circle cx="78.39" cy="92.8" r="0.45" style="fill:rgb(26,26,26);"/>
            <circle cx="85.128" cy="81.92" r="0.453" style="fill:rgb(26,26,26);"/>
            <circle cx="103.352" cy="123.84" r="0.456" style="fill:rgb(26,26,26);"/>
            <circle cx="122.881" cy="91.2" r="0.458" style="fill:rgb(26,26,26);"/>
            <circle cx="119.958" cy="119.68" r="0.476" style="fill:rgb(26,26,26);"/>
            <circle cx="126.739" cy="108.8" r="0.477" style="fill:rgb(26,26,26);"/>
            <circle cx="72.048" cy="103.68" r="0.477" style="fill:rgb(26,26,26);"/>
            <circle cx="91.861" cy="71.04" r="0.488" style="fill:rgb(26,26,26);"/>
            <circle cx="87.137" cy="128" r="0.493" style="fill:rgb(26,26,26);"/>
            <circle cx="76.75" cy="121.28" r="0.497" style="fill:rgb(26,26,26);"/>
            <circle cx="118.009" cy="73.6" r="0.5" style="fill:rgb(26,26,26);"/>
            <circle cx="133.02" cy="97.92" r="0.507" style="fill:rgb(26,26,26);"/>
            <circle cx="113.065" cy="130.56" r="0.508" style="fill:rgb(26,26,26);"/>
            <circle cx="107.781" cy="66.88" r="0.514" style="fill:rgb(26,26,26);"/>
            <circle cx="68.712" cy="86.08" r="0.515" style="fill:rgb(26,26,26);"/>
            <circle cx="128.368" cy="80.32" r="0.518" style="fill:rgb(26,26,26);"/>
            <circle cx="75.659" cy="75.2" r="0.519" style="fill:rgb(26,26,26);"/>
            <circle cx="97.208" cy="134.72" r="0.52" style="fill:rgb(26,26,26);"/>
            <circle cx="66.495" cy="114.56" r="0.532" style="fill:rgb(26,26,26);"/>
            <circle cx="62.301" cy="96.96" r="0.543" style="fill:rgb(26,26,26);"/>
            <circle cx="128.994" cy="126.4" r="0.554" style="fill:rgb(26,26,26);"/>
            <circle cx="136.012" cy="115.52" r="0.554" style="fill:rgb(26,26,26);"/>
            <circle cx="82.764" cy="64.32" r="0.558" style="fill:rgb(26,26,26);"/>
            <circle cx="98.148" cy="60.16" r="0.56" style="fill:rgb(26,26,26);"/>
            <circle cx="138.42" cy="87.04" r="0.566" style="fill:rgb(26,26,26);"/>
            <circle cx="106.49" cy="141.44" r="0.578" style="fill:rgb(26,26,26);"/>
            <circle cx="72.225" cy="132.16" r="0.583" style="fill:rgb(26,26,26);"/>
            <circle cx="142.381" cy="104.64" r="0.585" style="fill:rgb(26,26,26);"/>
            <circle cx="82.353" cy="138.88" r="0.585" style="fill:rgb(26,26,26);"/>
            <circle cx="121.687" cy="137.28" r="0.589" style="fill:rgb(26,26,26);"/>
            <circle cx="122.498" cy="62.72" r="0.593" style="fill:rgb(26,26,26);"/>
            <circle cx="56.787" cy="107.84" r="0.597" style="fill:rgb(26,26,26);"/>
            <circle cx="132.637" cy="69.44" r="0.605" style="fill:rgb(26,26,26);"/>
            <circle cx="60.118" cy="79.36" r="0.607" style="fill:rgb(26,26,26);"/>
            <circle cx="67.39" cy="68.48" r="0.611" style="fill:rgb(26,26,26);"/>
            <circle cx="62.139" cy="125.44" r="0.614" style="fill:rgb(26,26,26);"/>
            <circle cx="112.599" cy="56" r="0.616" style="fill:rgb(26,26,26);"/>
            <circle cx="92.039" cy="145.6" r="0.621" style="fill:rgb(26,26,26);"/>
            <circle cx="53.553" cy="90.24" r="0.634" style="fill:rgb(26,26,26);"/>
            <circle cx="89.607" cy="53.44" r="0.637" style="fill:rgb(26,26,26);"/>
            <circle cx="147.76" cy="93.76" r="0.642" style="fill:rgb(26,26,26);"/>
            <circle cx="142.547" cy="76.16" r="0.649" style="fill:rgb(26,26,26);"/>
            <circle cx="75.036" cy="57.6" r="0.654" style="fill:rgb(26,26,26);"/>
            <circle cx="144.052" cy="122.24" r="0.655" style="fill:rgb(26,26,26);"/>
            <circle cx="136.676" cy="133.12" r="0.656" style="fill:rgb(26,26,26);"/>
            <circle cx="114.485" cy="148.16" r="0.667" style="fill:rgb(26,26,26);"/>
            <circle cx="103.461" cy="49.28" r="0.673" style="fill:rgb(26,26,26);"/>
            <circle cx="52.534" cy="118.72" r="0.676" style="fill:rgb(26,26,26);"/>
            <circle cx="150.597" cy="111.36" r="0.686" style="fill:rgb(26,26,26);"/>
            <circle cx="48.011" cy="101.12" r="0.688" style="fill:rgb(26,26,26);"/>
            <circle cx="100.746" cy="152.32" r="0.692" style="fill:rgb(26,26,26);"/>
            <circle cx="128.769" cy="144" r="0.695" style="fill:rgb(26,26,26);"/>
            <circle cx="69.365" cy="143.04" r="0.699" style="fill:rgb(26,26,26);"/>
            <circle cx="79.239" cy="149.76" r="0.713" style="fill:rgb(26,26,26);"/>
            <circle cx="135.174" cy="58.56" r="0.72" style="fill:rgb(26,26,26);"/>
            <circle cx="125.235" cy="51.84" r="0.72" style="fill:rgb(26,26,26);"/>
            <circle cx="52.969" cy="72.64" r="0.72" style="fill:rgb(26,26,26);"/>
            <circle cx="59.44" cy="136.32" r="0.721" style="fill:rgb(26,26,26);"/>
            <circle cx="151.804" cy="82.88" r="0.722" style="fill:rgb(26,26,26);"/>
            <circle cx="60.716" cy="61.76" r="0.726" style="fill:rgb(26,26,26);"/>
            <circle cx="82.696" cy="46.72" r="0.743" style="fill:rgb(26,26,26);"/>
            <circle cx="156.021" cy="100.48" r="0.743" style="fill:rgb(26,26,26);"/>
            <circle cx="46.15" cy="83.52" r="0.748" style="fill:rgb(26,26,26);"/>
            <circle cx="144.96" cy="65.28" r="0.755" style="fill:rgb(26,26,26);"/>
            <circle cx="115.659" cy="45.12" r="0.759" style="fill:rgb(26,26,26);"/>
            <circle cx="43.807" cy="112" r="0.765" style="fill:rgb(26,26,26);"/>
            <circle cx="95.673" cy="42.56" r="0.767" style="fill:rgb(26,26,26);"/>
            <circle cx="88.518" cy="156.48" r="0.768" style="fill:rgb(26,26,26);"/>
            <circle cx="69.142" cy="50.88" r="0.774" style="fill:rgb(26,26,26);"/>
            <circle cx="49.937" cy="129.6" r="0.776" style="fill:rgb(26,26,26);"/>
            <circle cx="150.516" cy="128.96" r="0.777" style="fill:rgb(26,26,26);"/>
            <circle cx="142.619" cy="139.84" r="0.779" style="fill:rgb(26,26,26);"/>
            <circle cx="120.64" cy="154.88" r="0.784" style="fill:rgb(26,26,26);"/>
            <circle cx="107.858" cy="159.04" r="0.799" style="fill:rgb(26,26,26);"/>
            <circle cx="40.509" cy="94.4" r="0.802" style="fill:rgb(26,26,26);"/>
            <circle cx="157.342" cy="118.08" r="0.808" style="fill:rgb(26,26,26);"/>
            <circle cx="160.032" cy="89.6" r="0.822" style="fill:rgb(26,26,26);"/>
            <circle cx="154.141" cy="72" r="0.823" style="fill:rgb(26,26,26);"/>
            <circle cx="133.847" cy="150.72" r="0.823" style="fill:rgb(26,26,26);"/>
            <circle cx="107.053" cy="38.4" r="0.842" style="fill:rgb(26,26,26);"/>
            <circle cx="68.897" cy="153.92" r="0.846" style="fill:rgb(26,26,26);"/>
            <circle cx="47.595" cy="65.92" r="0.851" style="fill:rgb(26,26,26);"/>
            <circle cx="58.986" cy="147.2" r="0.852" style="fill:rgb(26,26,26);"/>
            <circle cx="56.021" cy="55.04" r="0.858" style="fill:rgb(26,26,26);"/>
            <circle cx="41.27" cy="122.88" r="0.861" style="fill:rgb(26,26,26);"/>
            <circle cx="135.288" cy="47.68" r="0.862" style="fill:rgb(26,26,26);"/>
            <circle cx="162.881" cy="107.2" r="0.866" style="fill:rgb(26,26,26);"/>
            <circle cx="96.553" cy="163.2" r="0.866" style="fill:rgb(26,26,26);"/>
            <circle cx="78.041" cy="40" r="0.878" style="fill:rgb(26,26,26);"/>
            <circle cx="36.303" cy="105.28" r="0.878" style="fill:rgb(26,26,26);"/>
            <circle cx="40.394" cy="76.8" r="0.879" style="fill:rgb(26,26,26);"/>
            <circle cx="145.106" cy="54.4" r="0.883" style="fill:rgb(26,26,26);"/>
            <circle cx="125.348" cy="40.96" r="0.885" style="fill:rgb(26,26,26);"/>
            <circle cx="78.7" cy="160.64" r="0.885" style="fill:rgb(26,26,26);"/>
            <circle cx="49.468" cy="140.48" r="0.895" style="fill:rgb(26,26,26);"/>
            <circle cx="89.967" cy="35.84" r="0.899" style="fill:rgb(26,26,26);"/>
            <circle cx="65.589" cy="44.16" r="0.913" style="fill:rgb(26,26,26);"/>
            <circle cx="155.093" cy="135.68" r="0.914" style="fill:rgb(26,26,26);"/>
            <circle cx="146.454" cy="146.56" r="0.917" style="fill:rgb(26,26,26);"/>
            <circle cx="162.327" cy="78.72" r="0.919" style="fill:rgb(26,26,26);"/>
            <circle cx="124.302" cy="161.6" r="0.927" style="fill:rgb(26,26,26);"/>
            <circle cx="34.575" cy="87.68" r="0.935" style="fill:rgb(26,26,26);"/>
            <circle cx="154.331" cy="61.12" r="0.94" style="fill:rgb(26,26,26);"/>
            <circle cx="112.583" cy="165.76" r="0.943" style="fill:rgb(26,26,26);"/>
            <circle cx="166.907" cy="96.32" r="0.944" style="fill:rgb(26,26,26);"/>
            <circle cx="162.333" cy="124.8" r="0.946" style="fill:rgb(26,26,26);"/>
            <circle cx="115.837" cy="34.24" r="0.959" style="fill:rgb(26,26,26);"/>
            <circle cx="136.407" cy="157.44" r="0.968" style="fill:rgb(26,26,26);"/>
            <circle cx="33.794" cy="116.16" r="0.971" style="fill:rgb(26,26,26);"/>
            <circle cx="40.775" cy="133.76" r="0.972" style="fill:rgb(26,26,26);"/>
            <circle cx="100.203" cy="31.68" r="0.976" style="fill:rgb(26,26,26);"/>
            <circle cx="87.794" cy="167.36" r="0.979" style="fill:rgb(26,26,26);"/>
            <circle cx="44.291" cy="59.2" r="0.994" style="fill:rgb(26,26,26);"/>
            <circle cx="53.691" cy="48.32" r="1.003" style="fill:rgb(26,26,26);"/>
            <circle cx="168.07" cy="113.92" r="1.005" style="fill:rgb(26,26,26);"/>
            <circle cx="61.677" cy="158.08" r="1.008" style="fill:rgb(26,26,26);"/>
            <circle cx="30.316" cy="98.56" r="1.011" style="fill:rgb(26,26,26);"/>
            <circle cx="102.464" cy="169.92" r="1.018" style="fill:rgb(26,26,26);"/>
            <circle cx="36.544" cy="70.08" r="1.023" style="fill:rgb(26,26,26);"/>
            <circle cx="162.561" cy="67.84" r="1.028" style="fill:rgb(26,26,26);"/>
            <circle cx="51.787" cy="151.36" r="1.031" style="fill:rgb(26,26,26);"/>
            <circle cx="142.148" cy="43.52" r="1.032" style="fill:rgb(26,26,26);"/>
            <circle cx="72.1" cy="164.8" r="1.034" style="fill:rgb(26,26,26);"/>
            <circle cx="169.186" cy="85.44" r="1.038" style="fill:rgb(26,26,26);"/>
            <circle cx="76.49" cy="33.28" r="1.04" style="fill:rgb(26,26,26);"/>
            <circle cx="131.792" cy="36.8" r="1.04" style="fill:rgb(26,26,26);"/>
            <circle cx="157.51" cy="142.4" r="1.06" style="fill:rgb(26,26,26);"/>
            <circle cx="147.803" cy="153.28" r="1.064" style="fill:rgb(26,26,26);"/>
            <circle cx="65.001" cy="37.44" r="1.067" style="fill:rgb(26,26,26);"/>
            <circle cx="151.766" cy="50.24" r="1.071" style="fill:rgb(26,26,26);"/>
            <circle cx="87.445" cy="29.12" r="1.076" style="fill:rgb(26,26,26);"/>
            <circle cx="33.272" cy="127.04" r="1.077" style="fill:rgb(26,26,26);"/>
            <circle cx="30.447" cy="80.96" r="1.08" style="fill:rgb(26,26,26);"/>
            <circle cx="172.161" cy="103.04" r="1.084" style="fill:rgb(26,26,26);"/>
            <circle cx="165.34" cy="131.52" r="1.094" style="fill:rgb(26,26,26);"/>
            <circle cx="42.811" cy="144.64" r="1.094" style="fill:rgb(26,26,26);"/>
            <circle cx="124.52" cy="168.32" r="1.096" style="fill:rgb(26,26,26);"/>
            <circle cx="27.808" cy="109.44" r="1.103" style="fill:rgb(26,26,26);"/>
            <circle cx="107.432" cy="27.52" r="1.104" style="fill:rgb(26,26,26);"/>
            <circle cx="121.025" cy="30.08" r="1.11" style="fill:rgb(26,26,26);"/>
            <circle cx="135.786" cy="164.16" r="1.125" style="fill:rgb(26,26,26);"/>
            <circle cx="82.716" cy="171.52" r="1.129" style="fill:rgb(26,26,26);"/>
            <circle cx="113.609" cy="172.48" r="1.135" style="fill:rgb(26,26,26);"/>
            <circle cx="43.327" cy="52.48" r="1.143" style="fill:rgb(26,26,26);"/>
            <circle cx="169.461" cy="74.56" r="1.143" style="fill:rgb(26,26,26);"/>
            <circle cx="160.294" cy="56.96" r="1.147" style="fill:rgb(26,26,26);"/>
            <circle cx="95.398" cy="174.08" r="1.152" style="fill:rgb(26,26,26);"/>
            <circle cx="54.156" cy="41.6" r="1.153" style="fill:rgb(26,26,26);"/>
            <circle cx="171.376" cy="120.64" r="1.155" style="fill:rgb(26,26,26);"/>
            <circle cx="26.077" cy="91.84" r="1.158" style="fill:rgb(26,26,26);"/>
            <circle cx="34.806" cy="63.36" r="1.174" style="fill:rgb(26,26,26);"/>
            <circle cx="174.449" cy="92.16" r="1.177" style="fill:rgb(26,26,26);"/>
            <circle cx="58.062" cy="162.24" r="1.184" style="fill:rgb(26,26,26);"/>
            <circle cx="96.436" cy="24.96" r="1.187" style="fill:rgb(26,26,26);"/>
            <circle cx="35.089" cy="137.92" r="1.19" style="fill:rgb(26,26,26);"/>
            <circle cx="69.446" cy="168.96" r="1.2" style="fill:rgb(26,26,26);"/>
            <circle cx="27.258" cy="120.32" r="1.204" style="fill:rgb(26,26,26);"/>
            <circle cx="134.378" cy="32.64" r="1.209" style="fill:rgb(26,26,26);"/>
            <circle cx="157.518" cy="149.12" r="1.209" style="fill:rgb(26,26,26);"/>
            <circle cx="146.232" cy="160" r="1.214" style="fill:rgb(26,26,26);"/>
            <circle cx="145.4" cy="39.36" r="1.214" style="fill:rgb(26,26,26);"/>
            <circle cx="48.137" cy="155.52" r="1.224" style="fill:rgb(26,26,26);"/>
            <circle cx="68.372" cy="30.72" r="1.233" style="fill:rgb(26,26,26);"/>
            <circle cx="28.307" cy="74.24" r="1.234" style="fill:rgb(26,26,26);"/>
            <circle cx="79.673" cy="26.56" r="1.235" style="fill:rgb(26,26,26);"/>
            <circle cx="175.59" cy="109.76" r="1.235" style="fill:rgb(26,26,26);"/>
            <circle cx="166.183" cy="138.24" r="1.246" style="fill:rgb(26,26,26);"/>
            <circle cx="23.541" cy="102.72" r="1.249" style="fill:rgb(26,26,26);"/>
            <circle cx="167.419" cy="63.68" r="1.253" style="fill:rgb(26,26,26);"/>
            <circle cx="104.494" cy="176.64" r="1.263" style="fill:rgb(26,26,26);"/>
            <circle cx="154.845" cy="46.08" r="1.27" style="fill:rgb(26,26,26);"/>
            <circle cx="174.76" cy="81.28" r="1.278" style="fill:rgb(26,26,26);"/>
            <circle cx="121.408" cy="25.92" r="1.28" style="fill:rgb(26,26,26);"/>
            <circle cx="109.724" cy="23.36" r="1.288" style="fill:rgb(26,26,26);"/>
            <circle cx="44.963" cy="45.76" r="1.289" style="fill:rgb(26,26,26);"/>
            <circle cx="130.81" cy="170.88" r="1.29" style="fill:rgb(26,26,26);"/>
            <circle cx="119.179" cy="175.04" r="1.3" style="fill:rgb(26,26,26);"/>
            <circle cx="58.008" cy="34.88" r="1.301" style="fill:rgb(26,26,26);"/>
            <circle cx="39.752" cy="148.8" r="1.304" style="fill:rgb(26,26,26);"/>
            <circle cx="82.909" cy="175.68" r="1.307" style="fill:rgb(26,26,26);"/>
            <circle cx="172.649" cy="127.36" r="1.31" style="fill:rgb(26,26,26);"/>
            <circle cx="28.91" cy="131.2" r="1.31" style="fill:rgb(26,26,26);"/>
            <circle cx="23.756" cy="85.12" r="1.313" style="fill:rgb(26,26,26);"/>
            <circle cx="35.337" cy="56.64" r="1.324" style="fill:rgb(26,26,26);"/>
            <circle cx="177.914" cy="98.88" r="1.328" style="fill:rgb(26,26,26);"/>
            <circle cx="91.036" cy="22.4" r="1.341" style="fill:rgb(26,26,26);"/>
            <circle cx="22.964" cy="113.6" r="1.349" style="fill:rgb(26,26,26);"/>
            <circle cx="154.869" cy="155.84" r="1.353" style="fill:rgb(26,26,26);"/>
            <circle cx="141.085" cy="166.72" r="1.358" style="fill:rgb(26,26,26);"/>
            <circle cx="58.356" cy="166.4" r="1.36" style="fill:rgb(26,26,26);"/>
            <circle cx="162.616" cy="52.8" r="1.362" style="fill:rgb(26,26,26);"/>
            <circle cx="71.533" cy="173.12" r="1.366" style="fill:rgb(26,26,26);"/>
            <circle cx="93.975" cy="178.24" r="1.367" style="fill:rgb(26,26,26);"/>
            <circle cx="132.54" cy="28.48" r="1.374" style="fill:rgb(26,26,26);"/>
            <circle cx="172.887" cy="70.4" r="1.382" style="fill:rgb(26,26,26);"/>
            <circle cx="28.27" cy="67.52" r="1.388" style="fill:rgb(26,26,26);"/>
            <circle cx="144.832" cy="35.2" r="1.393" style="fill:rgb(26,26,26);"/>
            <circle cx="177.056" cy="116.48" r="1.393" style="fill:rgb(26,26,26);"/>
            <circle cx="164.732" cy="144.96" r="1.394" style="fill:rgb(26,26,26);"/>
            <circle cx="21.159" cy="96" r="1.405" style="fill:rgb(26,26,26);"/>
            <circle cx="78.387" cy="24" r="1.412" style="fill:rgb(26,26,26);"/>
            <circle cx="33.092" cy="142.08" r="1.415" style="fill:rgb(26,26,26);"/>
            <circle cx="48.172" cy="159.68" r="1.415" style="fill:rgb(26,26,26);"/>
            <circle cx="49.513" cy="39.04" r="1.426" style="fill:rgb(26,26,26);"/>
            <circle cx="178.256" cy="88" r="1.428" style="fill:rgb(26,26,26);"/>
            <circle cx="100.987" cy="20.8" r="1.431" style="fill:rgb(26,26,26);"/>
            <circle cx="66.466" cy="28.16" r="1.44" style="fill:rgb(26,26,26);"/>
            <circle cx="24.494" cy="124.48" r="1.45" style="fill:rgb(26,26,26);"/>
            <circle cx="105.873" cy="179.2" r="1.455" style="fill:rgb(26,26,26);"/>
            <circle cx="171.801" cy="134.08" r="1.463" style="fill:rgb(26,26,26);"/>
            <circle cx="154.265" cy="41.92" r="1.464" style="fill:rgb(26,26,26);"/>
            <circle cx="114.081" cy="21.76" r="1.466" style="fill:rgb(26,26,26);"/>
            <circle cx="38.255" cy="49.92" r="1.466" style="fill:rgb(26,26,26);"/>
            <circle cx="23.453" cy="78.4" r="1.471" style="fill:rgb(26,26,26);"/>
            <circle cx="117.453" cy="177.6" r="1.471" style="fill:rgb(26,26,26);"/>
            <circle cx="168.553" cy="59.52" r="1.482" style="fill:rgb(26,26,26);"/>
            <circle cx="149.242" cy="162.56" r="1.482" style="fill:rgb(26,26,26);"/>
            <circle cx="130.813" cy="173.44" r="1.487" style="fill:rgb(26,26,26);"/>
            <circle cx="179.446" cy="105.6" r="1.487" style="fill:rgb(26,26,26);"/>
            <circle cx="20.554" cy="106.88" r="1.504" style="fill:rgb(26,26,26);"/>
            <circle cx="40.338" cy="152.96" r="1.51" style="fill:rgb(26,26,26);"/>
            <circle cx="80.149" cy="177.28" r="1.513" style="fill:rgb(26,26,26);"/>
            <circle cx="62.729" cy="170.56" r="1.515" style="fill:rgb(26,26,26);"/>
            <circle cx="125.328" cy="24.32" r="1.516" style="fill:rgb(26,26,26);"/>
            <circle cx="176.506" cy="77.12" r="1.527" style="fill:rgb(26,26,26);"/>
            <circle cx="160.894" cy="151.68" r="1.531" style="fill:rgb(26,26,26);"/>
            <circle cx="30.391" cy="60.8" r="1.536" style="fill:rgb(26,26,26);"/>
            <circle cx="57.527" cy="32.32" r="1.541" style="fill:rgb(26,26,26);"/>
            <circle cx="28.324" cy="135.36" r="1.548" style="fill:rgb(26,26,26);"/>
            <circle cx="140.414" cy="31.04" r="1.55" style="fill:rgb(26,26,26);"/>
            <circle cx="176.489" cy="123.2" r="1.55" style="fill:rgb(26,26,26);"/>
            <circle cx="95.928" cy="179.84" r="1.555" style="fill:rgb(26,26,26);"/>
            <circle cx="85.121" cy="21.44" r="1.561" style="fill:rgb(26,26,26);"/>
            <circle cx="20.755" cy="89.28" r="1.565" style="fill:rgb(26,26,26);"/>
            <circle cx="161.306" cy="48.64" r="1.571" style="fill:rgb(26,26,26);"/>
            <circle cx="139.992" cy="169.28" r="1.586" style="fill:rgb(26,26,26);"/>
            <circle cx="179.82" cy="94.72" r="1.586" style="fill:rgb(26,26,26);"/>
            <circle cx="51.795" cy="163.84" r="1.588" style="fill:rgb(26,26,26);"/>
            <circle cx="43.667" cy="43.2" r="1.592" style="fill:rgb(26,26,26);"/>
            <circle cx="105.057" cy="20.16" r="1.6" style="fill:rgb(26,26,26);"/>
            <circle cx="21.996" cy="117.76" r="1.603" style="fill:rgb(26,26,26);"/>
            <circle cx="168.812" cy="140.8" r="1.608" style="fill:rgb(26,26,26);"/>
            <circle cx="70.62" cy="25.6" r="1.618" style="fill:rgb(26,26,26);"/>
            <circle cx="172.514" cy="66.24" r="1.621" style="fill:rgb(26,26,26);"/>
            <circle cx="25.198" cy="71.68" r="1.624" style="fill:rgb(26,26,26);"/>
            <circle cx="71.479" cy="174.72" r="1.628" style="fill:rgb(26,26,26);"/>
            <circle cx="34.755" cy="146.24" r="1.633" style="fill:rgb(26,26,26);"/>
            <circle cx="150.196" cy="37.76" r="1.638" style="fill:rgb(26,26,26);"/>
            <circle cx="124.83" cy="176" r="1.641" style="fill:rgb(26,26,26);"/>
            <circle cx="178.985" cy="112.32" r="1.646" style="fill:rgb(26,26,26);"/>
            <circle cx="154.582" cy="158.4" r="1.648" style="fill:rgb(26,26,26);"/>
            <circle cx="87.187" cy="178.88" r="1.656" style="fill:rgb(26,26,26);"/>
            <circle cx="20.114" cy="100.16" r="1.664" style="fill:rgb(26,26,26);"/>
            <circle cx="132.167" cy="26.88" r="1.665" style="fill:rgb(26,26,26);"/>
            <circle cx="34.666" cy="54.08" r="1.672" style="fill:rgb(26,26,26);"/>
            <circle cx="178.156" cy="83.84" r="1.683" style="fill:rgb(26,26,26);"/>
            <circle cx="93.548" cy="20.48" r="1.689" style="fill:rgb(26,26,26);"/>
            <circle cx="51.74" cy="36.48" r="1.69" style="fill:rgb(26,26,26);"/>
            <circle cx="25.572" cy="128.64" r="1.695" style="fill:rgb(26,26,26);"/>
            <circle cx="44.368" cy="157.12" r="1.698" style="fill:rgb(26,26,26);"/>
            <circle cx="173.893" cy="129.92" r="1.7" style="fill:rgb(26,26,26);"/>
            <circle cx="113.541" cy="178.56" r="1.701" style="fill:rgb(26,26,26);"/>
            <circle cx="166.041" cy="55.36" r="1.702" style="fill:rgb(26,26,26);"/>
            <circle cx="119.428" cy="22.72" r="1.706" style="fill:rgb(26,26,26);"/>
            <circle cx="22.35" cy="82.56" r="1.722" style="fill:rgb(26,26,26);"/>
            <circle cx="79.809" cy="23.04" r="1.725" style="fill:rgb(26,26,26);"/>
            <circle cx="58.691" cy="168" r="1.725" style="fill:rgb(26,26,26);"/>
            <circle cx="101.69" cy="179.52" r="1.729" style="fill:rgb(26,26,26);"/>
            <circle cx="145.613" cy="165.12" r="1.733" style="fill:rgb(26,26,26);"/>
            <circle cx="163.717" cy="147.52" r="1.736" style="fill:rgb(26,26,26);"/>
            <circle cx="179.396" cy="101.44" r="1.746" style="fill:rgb(26,26,26);"/>
            <circle cx="62.972" cy="29.76" r="1.746" style="fill:rgb(26,26,26);"/>
            <circle cx="156.617" cy="44.48" r="1.759" style="fill:rgb(26,26,26);"/>
            <circle cx="108.116" cy="21.12" r="1.759" style="fill:rgb(26,26,26);"/>
            <circle cx="21.498" cy="111.04" r="1.761" style="fill:rgb(26,26,26);"/>
            <circle cx="28.95" cy="64.96" r="1.767" style="fill:rgb(26,26,26);"/>
            <circle cx="133.345" cy="171.84" r="1.769" style="fill:rgb(26,26,26);"/>
            <circle cx="174.409" cy="72.96" r="1.772" style="fill:rgb(26,26,26);"/>
            <circle cx="31.418" cy="139.52" r="1.774" style="fill:rgb(26,26,26);"/>
            <circle cx="143.034" cy="33.6" r="1.777" style="fill:rgb(26,26,26);"/>
            <circle cx="41.04" cy="47.36" r="1.785" style="fill:rgb(26,26,26);"/>
            <circle cx="176.544" cy="119.04" r="1.8" style="fill:rgb(26,26,26);"/>
            <circle cx="68.401" cy="172.16" r="1.809" style="fill:rgb(26,26,26);"/>
            <circle cx="80.648" cy="176.32" r="1.813" style="fill:rgb(26,26,26);"/>
            <circle cx="21.661" cy="93.44" r="1.823" style="fill:rgb(26,26,26);"/>
            <circle cx="39.808" cy="150.4" r="1.831" style="fill:rgb(26,26,26);"/>
            <circle cx="169.342" cy="136.64" r="1.837" style="fill:rgb(26,26,26);"/>
            <circle cx="156.596" cy="154.24" r="1.839" style="fill:rgb(26,26,26);"/>
            <circle cx="177.788" cy="90.56" r="1.842" style="fill:rgb(26,26,26);"/>
            <circle cx="168.491" cy="62.08" r="1.847" style="fill:rgb(26,26,26);"/>
            <circle cx="24.894" cy="121.92" r="1.85" style="fill:rgb(26,26,26);"/>
            <circle cx="51.397" cy="161.28" r="1.852" style="fill:rgb(26,26,26);"/>
            <circle cx="93.408" cy="177.92" r="1.853" style="fill:rgb(26,26,26);"/>
            <circle cx="95.295" cy="22.08" r="1.863" style="fill:rgb(26,26,26);"/>
            <circle cx="133.372" cy="29.44" r="1.863" style="fill:rgb(26,26,26);"/>
            <circle cx="49.445" cy="40.64" r="1.869" style="fill:rgb(26,26,26);"/>
            <circle cx="25.889" cy="75.84" r="1.87" style="fill:rgb(26,26,26);"/>
            <circle cx="122.935" cy="174.4" r="1.876" style="fill:rgb(26,26,26);"/>
            <circle cx="121.855" cy="25.28" r="1.876" style="fill:rgb(26,26,26);"/>
            <circle cx="111.314" cy="176.96" r="1.88" style="fill:rgb(26,26,26);"/>
            <circle cx="72.773" cy="27.2" r="1.884" style="fill:rgb(26,26,26);"/>
            <circle cx="34.6" cy="58.24" r="1.892" style="fill:rgb(26,26,26);"/>
            <circle cx="160.202" cy="51.2" r="1.898" style="fill:rgb(26,26,26);"/>
            <circle cx="177.001" cy="108.16" r="1.902" style="fill:rgb(26,26,26);"/>
            <circle cx="147.54" cy="160.96" r="1.909" style="fill:rgb(26,26,26);"/>
            <circle cx="59.881" cy="33.92" r="1.909" style="fill:rgb(26,26,26);"/>
            <circle cx="149.044" cy="40.32" r="1.912" style="fill:rgb(26,26,26);"/>
            <circle cx="23.006" cy="104.32" r="1.919" style="fill:rgb(26,26,26);"/>
            <circle cx="30.322" cy="132.8" r="1.925" style="fill:rgb(26,26,26);"/>
            <circle cx="174.211" cy="79.68" r="1.929" style="fill:rgb(26,26,26);"/>
            <circle cx="84.558" cy="24.64" r="1.929" style="fill:rgb(26,26,26);"/>
            <circle cx="136.532" cy="167.68" r="1.93" style="fill:rgb(26,26,26);"/>
            <circle cx="172.209" cy="125.76" r="1.943" style="fill:rgb(26,26,26);"/>
            <circle cx="107.178" cy="23.68" r="1.943" style="fill:rgb(26,26,26);"/>
            <circle cx="162.977" cy="143.36" r="1.953" style="fill:rgb(26,26,26);"/>
            <circle cx="60.753" cy="165.44" r="1.96" style="fill:rgb(26,26,26);"/>
            <circle cx="25.137" cy="86.72" r="1.973" style="fill:rgb(26,26,26);"/>
            <circle cx="37.859" cy="143.68" r="1.977" style="fill:rgb(26,26,26);"/>
            <circle cx="82.802" cy="173.76" r="1.986" style="fill:rgb(26,26,26);"/>
            <circle cx="41.973" cy="51.52" r="1.992" style="fill:rgb(26,26,26);"/>
            <circle cx="47.748" cy="154.56" r="1.995" style="fill:rgb(26,26,26);"/>
            <circle cx="175.428" cy="97.28" r="1.998" style="fill:rgb(26,26,26);"/>
            <circle cx="168.689" cy="68.8" r="1.999" style="fill:rgb(26,26,26);"/>
            <circle cx="31.247" cy="69.12" r="2.002" style="fill:rgb(26,26,26);"/>
            <circle cx="99.407" cy="175.36" r="2.003" style="fill:rgb(26,26,26);"/>
            <circle cx="26.285" cy="115.2" r="2.007" style="fill:rgb(26,26,26);"/>
            <circle cx="71.566" cy="169.6" r="2.01" style="fill:rgb(26,26,26);"/>
            <circle cx="139.305" cy="36.16" r="2.019" style="fill:rgb(26,26,26);"/>
            <circle cx="155.005" cy="150.08" r="2.042" style="fill:rgb(26,26,26);"/>
            <circle cx="161.196" cy="57.92" r="2.046" style="fill:rgb(26,26,26);"/>
            <circle cx="124.025" cy="170.24" r="2.047" style="fill:rgb(26,26,26);"/>
            <circle cx="172.726" cy="114.88" r="2.047" style="fill:rgb(26,26,26);"/>
            <circle cx="117.172" cy="27.84" r="2.05" style="fill:rgb(26,26,26);"/>
            <circle cx="72.095" cy="31.36" r="2.052" style="fill:rgb(26,26,26);"/>
            <circle cx="151.583" cy="47.04" r="2.059" style="fill:rgb(26,26,26);"/>
            <circle cx="50.842" cy="44.8" r="2.059" style="fill:rgb(26,26,26);"/>
            <circle cx="98.569" cy="26.24" r="2.064" style="fill:rgb(26,26,26);"/>
            <circle cx="166.138" cy="132.48" r="2.067" style="fill:rgb(26,26,26);"/>
            <circle cx="128.315" cy="32" r="2.068" style="fill:rgb(26,26,26);"/>
            <circle cx="110.687" cy="172.8" r="2.071" style="fill:rgb(26,26,26);"/>
            <circle cx="26.459" cy="97.6" r="2.071" style="fill:rgb(26,26,26);"/>
            <circle cx="31.417" cy="126.08" r="2.078" style="fill:rgb(26,26,26);"/>
            <circle cx="171.96" cy="86.4" r="2.083" style="fill:rgb(26,26,26);"/>
            <circle cx="60.95" cy="38.08" r="2.084" style="fill:rgb(26,26,26);"/>
            <circle cx="145.683" cy="156.8" r="2.094" style="fill:rgb(26,26,26);"/>
            <circle cx="135.29" cy="163.52" r="2.102" style="fill:rgb(26,26,26);"/>
            <circle cx="85.918" cy="28.8" r="2.105" style="fill:rgb(26,26,26);"/>
            <circle cx="30.408" cy="80" r="2.11" style="fill:rgb(26,26,26);"/>
            <circle cx="38.225" cy="62.4" r="2.113" style="fill:rgb(26,26,26);"/>
            <circle cx="57.859" cy="158.72" r="2.114" style="fill:rgb(26,26,26);"/>
            <circle cx="38.349" cy="136.96" r="2.127" style="fill:rgb(26,26,26);"/>
            <circle cx="91.383" cy="171.2" r="2.132" style="fill:rgb(26,26,26);"/>
            <circle cx="47.095" cy="147.84" r="2.143" style="fill:rgb(26,26,26);"/>
            <circle cx="171.17" cy="104" r="2.145" style="fill:rgb(26,26,26);"/>
            <circle cx="166.714" cy="75.52" r="2.151" style="fill:rgb(26,26,26);"/>
            <circle cx="29.669" cy="108.48" r="2.158" style="fill:rgb(26,26,26);"/>
            <circle cx="158.561" cy="139.2" r="2.168" style="fill:rgb(26,26,26);"/>
            <circle cx="140.93" cy="42.88" r="2.174" style="fill:rgb(26,26,26);"/>
            <circle cx="166.735" cy="121.6" r="2.177" style="fill:rgb(26,26,26);"/>
            <circle cx="69.237" cy="162.88" r="2.181" style="fill:rgb(26,26,26);"/>
            <circle cx="106.681" cy="30.4" r="2.183" style="fill:rgb(26,26,26);"/>
            <circle cx="80.82" cy="167.04" r="2.188" style="fill:rgb(26,26,26);"/>
            <circle cx="159.786" cy="64.64" r="2.195" style="fill:rgb(26,26,26);"/>
            <circle cx="46.558" cy="55.68" r="2.196" style="fill:rgb(26,26,26);"/>
            <circle cx="120.092" cy="166.08" r="2.206" style="fill:rgb(26,26,26);"/>
            <circle cx="151.222" cy="53.76" r="2.207" style="fill:rgb(26,26,26);"/>
            <circle cx="31.72" cy="90.88" r="2.21" style="fill:rgb(26,26,26);"/>
            <circle cx="104.579" cy="168.64" r="2.213" style="fill:rgb(26,26,26);"/>
            <circle cx="76.057" cy="35.52" r="2.213" style="fill:rgb(26,26,26);"/>
            <circle cx="34.602" cy="119.36" r="2.227" style="fill:rgb(26,26,26);"/>
            <circle cx="37.274" cy="73.28" r="2.228" style="fill:rgb(26,26,26);"/>
            <circle cx="167.761" cy="93.12" r="2.229" style="fill:rgb(26,26,26);"/>
            <circle cx="129.165" cy="38.72" r="2.235" style="fill:rgb(26,26,26);"/>
            <circle cx="149.775" cy="145.92" r="2.239" style="fill:rgb(26,26,26);"/>
            <circle cx="117.351" cy="34.56" r="2.239" style="fill:rgb(26,26,26);"/>
            <circle cx="92.187" cy="32.96" r="2.244" style="fill:rgb(26,26,26);"/>
            <circle cx="55.912" cy="48.96" r="2.245" style="fill:rgb(26,26,26);"/>
            <circle cx="65.895" cy="42.24" r="2.254" style="fill:rgb(26,26,26);"/>
            <circle cx="58.384" cy="152" r="2.265" style="fill:rgb(26,26,26);"/>
            <circle cx="130.086" cy="159.36" r="2.266" style="fill:rgb(26,26,26);"/>
            <circle cx="41.107" cy="130.24" r="2.274" style="fill:rgb(26,26,26);"/>
            <circle cx="140.142" cy="152.64" r="2.274" style="fill:rgb(26,26,26);"/>
            <circle cx="165.181" cy="110.72" r="2.277" style="fill:rgb(26,26,26);"/>
            <circle cx="159.259" cy="128.32" r="2.285" style="fill:rgb(26,26,26);"/>
            <circle cx="49.055" cy="141.12" r="2.29" style="fill:rgb(26,26,26);"/>
            <circle cx="162.699" cy="82.24" r="2.296" style="fill:rgb(26,26,26);"/>
            <circle cx="34.903" cy="101.76" r="2.297" style="fill:rgb(26,26,26);"/>
            <circle cx="95.049" cy="164.48" r="2.306" style="fill:rgb(26,26,26);"/>
            <circle cx="45.463" cy="66.56" r="2.321" style="fill:rgb(26,26,26);"/>
            <circle cx="139.338" cy="49.6" r="2.321" style="fill:rgb(26,26,26);"/>
            <circle cx="38.586" cy="84.16" r="2.331" style="fill:rgb(26,26,26);"/>
            <circle cx="70.827" cy="156.16" r="2.334" style="fill:rgb(26,26,26);"/>
            <circle cx="112.306" cy="161.92" r="2.337" style="fill:rgb(26,26,26);"/>
            <circle cx="156.167" cy="71.36" r="2.339" style="fill:rgb(26,26,26);"/>
            <circle cx="101.802" cy="37.12" r="2.341" style="fill:rgb(26,26,26);"/>
            <circle cx="83.412" cy="160.32" r="2.348" style="fill:rgb(26,26,26);"/>
            <circle cx="83.784" cy="39.68" r="2.35" style="fill:rgb(26,26,26);"/>
            <circle cx="148.337" cy="60.48" r="2.35" style="fill:rgb(26,26,26);"/>
            <circle cx="161.789" cy="99.84" r="2.362" style="fill:rgb(26,26,26);"/>
            <circle cx="39.714" cy="112.64" r="2.366" style="fill:rgb(26,26,26);"/>
            <circle cx="150.598" cy="135.04" r="2.367" style="fill:rgb(26,26,26);"/>
            <circle cx="126.459" cy="45.44" r="2.383" style="fill:rgb(26,26,26);"/>
            <circle cx="54.642" cy="59.84" r="2.384" style="fill:rgb(26,26,26);"/>
            <circle cx="113.592" cy="41.28" r="2.389" style="fill:rgb(26,26,26);"/>
            <circle cx="157.692" cy="117.44" r="2.389" style="fill:rgb(26,26,26);"/>
            <circle cx="74.305" cy="46.4" r="2.403" style="fill:rgb(26,26,26);"/>
            <circle cx="61.668" cy="145.28" r="2.405" style="fill:rgb(26,26,26);"/>
            <circle cx="121.432" cy="155.2" r="2.407" style="fill:rgb(26,26,26);"/>
            <circle cx="45.924" cy="123.52" r="2.411" style="fill:rgb(26,26,26);"/>
            <circle cx="64.41" cy="53.12" r="2.413" style="fill:rgb(26,26,26);"/>
            <circle cx="141.112" cy="141.76" r="2.417" style="fill:rgb(26,26,26);"/>
            <circle cx="41.779" cy="95.04" r="2.42" style="fill:rgb(26,26,26);"/>
            <circle cx="53.312" cy="134.4" r="2.427" style="fill:rgb(26,26,26);"/>
            <circle cx="156.834" cy="88.96" r="2.428" style="fill:rgb(26,26,26);"/>
            <circle cx="46.789" cy="77.44" r="2.43" style="fill:rgb(26,26,26);"/>
            <circle cx="101.605" cy="157.76" r="2.43" style="fill:rgb(26,26,26);"/>
            <circle cx="131.227" cy="148.48" r="2.432" style="fill:rgb(26,26,26);"/>
            <circle cx="94.465" cy="43.84" r="2.451" style="fill:rgb(26,26,26);"/>
            <circle cx="135.142" cy="56.32" r="2.456" style="fill:rgb(26,26,26);"/>
            <circle cx="75.287" cy="149.44" r="2.468" style="fill:rgb(26,26,26);"/>
            <circle cx="150.572" cy="78.08" r="2.47" style="fill:rgb(26,26,26);"/>
            <circle cx="88.935" cy="153.6" r="2.475" style="fill:rgb(26,26,26);"/>
            <circle cx="154.278" cy="106.56" r="2.476" style="fill:rgb(26,26,26);"/>
            <circle cx="148.998" cy="124.16" r="2.477" style="fill:rgb(26,26,26);"/>
            <circle cx="143.258" cy="67.2" r="2.481" style="fill:rgb(26,26,26);"/>
            <circle cx="46.533" cy="105.92" r="2.488" style="fill:rgb(26,26,26);"/>
            <circle cx="56.002" cy="70.72" r="2.501" style="fill:rgb(26,26,26);"/>
            <circle cx="107.224" cy="48" r="2.505" style="fill:rgb(26,26,26);"/>
            <circle cx="121.112" cy="52.16" r="2.508" style="fill:rgb(26,26,26);"/>
            <circle cx="109.981" cy="151.04" r="2.512" style="fill:rgb(26,26,26);"/>
            <circle cx="85.598" cy="50.56" r="2.518" style="fill:rgb(26,26,26);"/>
            <circle cx="50.029" cy="88.32" r="2.521" style="fill:rgb(26,26,26);"/>
            <circle cx="67.231" cy="138.56" r="2.529" style="fill:rgb(26,26,26);"/>
            <circle cx="52.553" cy="116.8" r="2.533" style="fill:rgb(26,26,26);"/>
            <circle cx="139.45" cy="130.88" r="2.536" style="fill:rgb(26,26,26);"/>
            <circle cx="65.841" cy="64" r="2.541" style="fill:rgb(26,26,26);"/>
            <circle cx="149.365" cy="95.68" r="2.542" style="fill:rgb(26,26,26);"/>
            <circle cx="75.87" cy="57.28" r="2.548" style="fill:rgb(26,26,26);"/>
            <circle cx="59.551" cy="127.68" r="2.548" style="fill:rgb(26,26,26);"/>
            <circle cx="119.459" cy="144.32" r="2.555" style="fill:rgb(26,26,26);"/>
            <circle cx="129.452" cy="137.6" r="2.563" style="fill:rgb(26,26,26);"/>
            <circle cx="145.521" cy="113.28" r="2.566" style="fill:rgb(26,26,26);"/>
            <circle cx="96.523" cy="146.88" r="2.571" style="fill:rgb(26,26,26);"/>
            <circle cx="128.812" cy="63.04" r="2.573" style="fill:rgb(26,26,26);"/>
            <circle cx="81.954" cy="142.72" r="2.578" style="fill:rgb(26,26,26);"/>
            <circle cx="143.272" cy="84.8" r="2.583" style="fill:rgb(26,26,26);"/>
            <circle cx="99.035" cy="54.72" r="2.589" style="fill:rgb(26,26,26);"/>
            <circle cx="54.784" cy="99.2" r="2.59" style="fill:rgb(26,26,26);"/>
            <circle cx="136.314" cy="73.92" r="2.595" style="fill:rgb(26,26,26);"/>
            <circle cx="59.332" cy="81.6" r="2.596" style="fill:rgb(26,26,26);"/>
            <circle cx="113.752" cy="58.88" r="2.608" style="fill:rgb(26,26,26);"/>
            <circle cx="135.86" cy="120" r="2.63" style="fill:rgb(26,26,26);"/>
            <circle cx="74.647" cy="131.84" r="2.633" style="fill:rgb(26,26,26);"/>
            <circle cx="140.59" cy="102.4" r="2.633" style="fill:rgb(26,26,26);"/>
            <circle cx="60.701" cy="110.08" r="2.634" style="fill:rgb(26,26,26);"/>
            <circle cx="105.535" cy="140.16" r="2.635" style="fill:rgb(26,26,26);"/>
            <circle cx="89.638" cy="61.44" r="2.64" style="fill:rgb(26,26,26);"/>
            <circle cx="69.316" cy="74.88" r="2.642" style="fill:rgb(26,26,26);"/>
            <circle cx="67.438" cy="120.96" r="2.65" style="fill:rgb(26,26,26);"/>
            <circle cx="79.568" cy="68.16" r="2.657" style="fill:rgb(26,26,26);"/>
            <circle cx="90.291" cy="136" r="2.662" style="fill:rgb(26,26,26);"/>
            <circle cx="125.685" cy="126.72" r="2.663" style="fill:rgb(26,26,26);"/>
            <circle cx="115.422" cy="133.44" r="2.665" style="fill:rgb(26,26,26);"/>
            <circle cx="120.783" cy="69.76" r="2.666" style="fill:rgb(26,26,26);"/>
            <circle cx="64.146" cy="92.48" r="2.667" style="fill:rgb(26,26,26);"/>
            <circle cx="134.583" cy="91.52" r="2.675" style="fill:rgb(26,26,26);"/>
            <circle cx="104.909" cy="65.6" r="2.681" style="fill:rgb(26,26,26);"/>
            <circle cx="127.858" cy="80.64" r="2.687" style="fill:rgb(26,26,26);"/>
            <circle cx="130.852" cy="109.12" r="2.699" style="fill:rgb(26,26,26);"/>
            <circle cx="70.034" cy="103.36" r="2.711" style="fill:rgb(26,26,26);"/>
            <circle cx="83.5" cy="125.12" r="2.712" style="fill:rgb(26,26,26);"/>
            <circle cx="74.251" cy="85.76" r="2.716" style="fill:rgb(26,26,26);"/>
            <circle cx="99.808" cy="129.28" r="2.717" style="fill:rgb(26,26,26);"/>
            <circle cx="95.071" cy="72.32" r="2.723" style="fill:rgb(26,26,26);"/>
            <circle cx="76.613" cy="114.24" r="2.728" style="fill:rgb(26,26,26);"/>
            <circle cx="111.478" cy="76.48" r="2.734" style="fill:rgb(26,26,26);"/>
            <circle cx="84.702" cy="79.04" r="2.735" style="fill:rgb(26,26,26);"/>
            <circle cx="120.532" cy="115.84" r="2.735" style="fill:rgb(26,26,26);"/>
            <circle cx="124.855" cy="98.24" r="2.74" style="fill:rgb(26,26,26);"/>
            <circle cx="110.039" cy="122.56" r="2.741" style="fill:rgb(26,26,26);"/>
            <circle cx="118.266" cy="87.36" r="2.753" style="fill:rgb(26,26,26);"/>
            <circle cx="80.182" cy="96.64" r="2.762" style="fill:rgb(26,26,26);"/>
            <circle cx="93.372" cy="118.4" r="2.764" style="fill:rgb(26,26,26);"/>
            <circle cx="101.325" cy="83.2" r="2.773" style="fill:rgb(26,26,26);"/>
            <circle cx="114.472" cy="104.96" r="2.778" style="fill:rgb(26,26,26);"/>
            <circle cx="86.691" cy="107.52" r="2.778" style="fill:rgb(26,26,26);"/>
            <circle cx="90.751" cy="89.92" r="2.782" style="fill:rgb(26,26,26);"/>
            <circle cx="103.838" cy="111.68" r="2.786" style="fill:rgb(26,26,26);"/>
            <circle cx="107.933" cy="94.08" r="2.791" style="fill:rgb(26,26,26);"/>
            <circle cx="97.269" cy="100.8" r="2.799" style="fill:rgb(26,26,26);"/>
        </g>
    </g>
</svg>
