<svg xmlns="http://www.w3.org/2000/svg" fill="none" viewBox="0 -42 499 499"><title>Pricing blocks floating animation</title><path stroke="#54463e" stroke-width=".5" d="m358.17 259.63 139.45 80.52m.47-287.5L.12 340.15" opacity=".2"/><g><animateTransform attributeName="transform" begin="0s" calcMode="linear" dur="4s" keyTimes="0;0.125;0.25;0.375;0.5;0.625;0.75;0.875;1" repeatCount="indefinite" type="translate" values="0,0; 0,-5.66; 0,-8; 0,-5.66; 0,0; 0,5.66; 0,8; 0,5.66; 0,0"/><path stroke="#7b7b7b" stroke-width=".5" d="M437.38 305.34 248.7 414.2 60.07 305.28l188.67-108.85z"/><path stroke="#7b7b7b" d="m437.98 222.74.07 82.85-188.99 109.2L59.9 305.59v-82.85L248.96 113.6z"/><path stroke="#7b7b7b" stroke-width=".5" d="m248.91 414.63-.16-.1-1.09-.62-4.19-2.4a67386 67386 0 0 1-66.34-38.1A72928 72928 0 0 1 59.6 305.76v-82.9l189.97 109.45z"/><path stroke="#7b7b7b" stroke-width=".5" d="M249.38 332.47v82.15l.15-.08 1.07-.63 4.13-2.4a55260 55260 0 0 1 65.58-38.2 23024 23024 0 0 0 117.6-148.25v-2.18zm-4.12-215.15a8.6 8.6 0 0 1 7.76 0l179.8 103.81c2.15 1.24 2.15 3.25 0 4.49L249.89 331.16a1.7 1.7 0 0 1-1.55 0L64.64 225.1c-1.71-1-1.71-2.6 0-3.59z"/><path stroke="#7b7b7b" stroke-width=".5" d="m249.14 114.43 143.82 83.03c1.71 1 1.71 2.6 0 3.59l-140.12 80.84a8.2 8.2 0 0 1-7.45 0l-140.72-81.25c-1.37-.79-1.37-2.07 0-2.86z"/></g><g><animateTransform attributeName="transform" begin="-1.33s" calcMode="linear" dur="4s" keyTimes="0;0.125;0.25;0.375;0.5;0.625;0.75;0.875;1" repeatCount="indefinite" type="translate" values="0,0; 0,-5.66; 0,-8; 0,-5.66; 0,0; 0,5.66; 0,8; 0,5.66; 0,0"/><path stroke="#7b7b7b" d="m396.33 133.97.05 64.5-147.3 85.11-147.45-85.1v-64.5L249 48.9z"/><path stroke="#7b7b7b" stroke-width=".5" d="m248.8 283.63-.08-.05-.84-.48-3.22-1.85-11.86-6.84a268608 268608 0 0 1-130.96-75.54v-64.5l147.02 84.8z"/><path stroke="#7b7b7b" stroke-width=".5" d="m248.84 283.13.1-.07.96-.54 3.63-2.08 13.22-7.6 129.66-74.46v-64l-147.57 84.75zm-3.32-231.44a6.9 6.9 0 0 1 6.21 0l139.98 80.81c1.71 1 1.71 2.6 0 3.59l-141.25 81.49c-1.03.59-2.7.59-3.72 0l-141.85-81.9c-1.37-.79-1.37-2.07 0-2.86z"/><path stroke="#7b7b7b" stroke-width=".5" d="M247.5 51c.95-.55 2.5-.55 3.46 0l106.02 61.21c1.29.74 1.29 1.95 0 2.69L252 175.47a6.2 6.2 0 0 1-5.59 0L141 114.6c-1.03-.6-1.03-1.56 0-2.15zm1.58 77v48"/></g><g><animateTransform attributeName="transform" begin="-2.67s" calcMode="linear" dur="4s" keyTimes="0;0.125;0.25;0.375;0.5;0.625;0.75;0.875;1" repeatCount="indefinite" type="translate" values="0,0; 0,-5.66; 0,-8; 0,-5.66; 0,0; 0,5.66; 0,8; 0,5.66; 0,0"/><path stroke="#7b7b7b" stroke-width=".5" d="M249.08 1v48"/><path stroke="#7b7b7b" d="m359.4 64.3.04 48.23-110.35 63.76-110.46-63.76V64.3L249.03.58z"/><path stroke="#7b7b7b" stroke-width=".5" d="M359.35 64.5 248.9 128.22 138.49 64.46 248.93.75z"/></g></svg>