<?xml version="1.0" encoding="UTF-8" standalone="no"?>
<!DOCTYPE svg PUBLIC "-//W3C//DTD SVG 1.1//EN" "http://www.w3.org/Graphics/SVG/1.1/DTD/svg11.dtd">
<svg width="100%" height="100%" viewBox="0 0 800 800" version="1.1" xmlns="http://www.w3.org/2000/svg" xmlns:xlink="http://www.w3.org/1999/xlink" xml:space="preserve" xmlns:serif="http://www.serif.com/" style="fill-rule:evenodd;clip-rule:evenodd;">
    <rect id="Artboard1" x="0" y="0" width="800" height="800" style="fill:none;"/>
    <g id="Artboard11" serif:id="Artboard1">
        <g transform="matrix(4.94976,0,0,4.94976,-93.2113,-95.7099)">
            <g>
                <rect x="40.6" y="40.6" width="118.8" height="118.8" style="fill:none;fill-rule:nonzero;stroke:rgb(26,26,26);stroke-width:0.6px;"/>
            </g>
            <path d="M147.86,155.23L44.77,147.86L52.14,44.77L155.23,52.14L147.86,155.23Z" style="fill:none;fill-rule:nonzero;stroke:rgb(26,26,26);stroke-width:0.6px;"/>
            <path d="M138.1,150.9L49.1,138.1L61.9,49.1L150.9,61.9L138.1,150.9Z" style="fill:none;fill-rule:nonzero;stroke:rgb(26,26,26);stroke-width:0.6px;"/>
            <path d="M129.91,146.53L53.47,129.91L70.09,53.47L146.53,70.09L129.91,146.53Z" style="fill:none;fill-rule:nonzero;stroke:rgb(26,26,26);stroke-width:0.6px;"/>
            <path d="M123.06,142.24L57.76,123.06L76.94,57.76L142.24,76.94L123.06,142.24Z" style="fill:none;fill-rule:nonzero;stroke:rgb(26,26,26);stroke-width:0.6px;"/>
            <path d="M117.39,138.08L61.92,117.39L82.61,61.92L138.08,82.61L117.39,138.08Z" style="fill:none;fill-rule:nonzero;stroke:rgb(26,26,26);stroke-width:0.6px;"/>
            <path d="M112.73,134.13L65.87,112.73L87.27,65.87L134.13,87.27L112.73,134.13Z" style="fill:none;fill-rule:nonzero;stroke:rgb(26,26,26);stroke-width:0.6px;"/>
            <path d="M108.93,130.41L69.59,108.93L91.07,69.59L130.41,91.07L108.93,130.41Z" style="fill:none;fill-rule:nonzero;stroke:rgb(26,26,26);stroke-width:0.6px;"/>
            <path d="M105.86,126.94L73.06,105.86L94.14,73.06L126.94,94.14L105.86,126.94Z" style="fill:none;fill-rule:nonzero;stroke:rgb(26,26,26);stroke-width:0.6px;"/>
            <path d="M103.41,123.74L76.26,103.41L96.59,76.26L123.74,96.59L103.41,123.74Z" style="fill:none;fill-rule:nonzero;stroke:rgb(26,26,26);stroke-width:0.6px;"/>
            <path d="M101.49,120.81L79.19,101.49L98.51,79.19L120.81,98.51L101.49,120.81Z" style="fill:none;fill-rule:nonzero;stroke:rgb(26,26,26);stroke-width:0.6px;"/>
            <path d="M100,118.15L81.85,100L100,81.85L118.15,100L100,118.15Z" style="fill:none;fill-rule:nonzero;stroke:rgb(26,26,26);stroke-width:0.6px;"/>
            <path d="M98.87,115.75L84.25,98.87L101.13,84.25L115.75,101.13L98.87,115.75Z" style="fill:none;fill-rule:nonzero;stroke:rgb(26,26,26);stroke-width:0.6px;"/>
            <path d="M98.04,113.6L86.4,98.04L101.96,86.4L113.6,101.96L98.04,113.6Z" style="fill:none;fill-rule:nonzero;stroke:rgb(26,26,26);stroke-width:0.6px;"/>
            <path d="M97.46,111.68L88.32,97.46L102.54,88.32L111.68,102.54L97.46,111.68Z" style="fill:none;fill-rule:nonzero;stroke:rgb(26,26,26);stroke-width:0.6px;"/>
            <path d="M97.07,109.98L90.02,97.07L102.93,90.02L109.98,102.93L97.07,109.98Z" style="fill:none;fill-rule:nonzero;stroke:rgb(26,26,26);stroke-width:0.6px;"/>
            <path d="M96.84,108.48L91.52,96.84L103.16,91.52L108.48,103.16L96.84,108.48Z" style="fill:none;fill-rule:nonzero;stroke:rgb(26,26,26);stroke-width:0.6px;"/>
            <path d="M96.73,107.16L92.84,96.73L103.27,92.84L107.16,103.27L96.73,107.16Z" style="fill:none;fill-rule:nonzero;stroke:rgb(26,26,26);stroke-width:0.6px;"/>
        </g>
    </g>
</svg>
