<?xml version="1.0" encoding="UTF-8" standalone="no"?>
<!DOCTYPE svg PUBLIC "-//W3C//DTD SVG 1.1//EN" "http://www.w3.org/Graphics/SVG/1.1/DTD/svg11.dtd">
<svg width="100%" height="100%" viewBox="0 0 800 800" version="1.1" xmlns="http://www.w3.org/2000/svg" xmlns:xlink="http://www.w3.org/1999/xlink" xml:space="preserve" xmlns:serif="http://www.serif.com/" style="fill-rule:evenodd;clip-rule:evenodd;">
    <rect id="Artboard1" x="0" y="0" width="800" height="800" style="fill:none;"/>
    <g id="Artboard11" serif:id="Artboard1">
        <g transform="matrix(4.159,0,0,4.159,-30.2757,-23.6585)">
            <path d="M100,100L172,100" style="fill:none;fill-rule:nonzero;stroke:rgb(26,26,26);stroke-width:0.6px;"/>
            <circle cx="172" cy="100" r="1.5" style="fill:rgb(26,26,26);"/>
            <path d="M100,100L153.366,113.306" style="fill:none;fill-rule:nonzero;stroke:rgb(26,26,26);stroke-width:0.6px;"/>
            <circle cx="153.366" cy="113.306" r="1.5" style="fill:rgb(26,26,26);"/>
            <path d="M100,100L169.97,138.785" style="fill:none;fill-rule:nonzero;stroke:rgb(26,26,26);stroke-width:0.6px;"/>
            <circle cx="169.97" cy="138.785" r="1.5" style="fill:rgb(26,26,26);"/>
            <path d="M100,100L143.88,142.374" style="fill:none;fill-rule:nonzero;stroke:rgb(26,26,26);stroke-width:0.6px;"/>
            <circle cx="143.88" cy="142.374" r="1.5" style="fill:rgb(26,26,26);"/>
            <path d="M100,100L123.943,145.03" style="fill:none;fill-rule:nonzero;stroke:rgb(26,26,26);stroke-width:0.6px;"/>
            <circle cx="123.943" cy="145.03" r="1.5" style="fill:rgb(26,26,26);"/>
            <path d="M100,100L115.593,173.361" style="fill:none;fill-rule:nonzero;stroke:rgb(26,26,26);stroke-width:0.6px;"/>
            <circle cx="115.593" cy="173.361" r="1.5" style="fill:rgb(26,26,26);"/>
            <path d="M100,100L93.728,159.671" style="fill:none;fill-rule:nonzero;stroke:rgb(26,26,26);stroke-width:0.6px;"/>
            <circle cx="93.728" cy="159.671" r="1.5" style="fill:rgb(26,26,26);"/>
            <path d="M100,100L74.993,158.912" style="fill:none;fill-rule:nonzero;stroke:rgb(26,26,26);stroke-width:0.6px;"/>
            <circle cx="74.993" cy="158.912" r="1.5" style="fill:rgb(26,26,26);"/>
            <path d="M100,100L64.573,140.754" style="fill:none;fill-rule:nonzero;stroke:rgb(26,26,26);stroke-width:0.6px;"/>
            <circle cx="64.573" cy="140.754" r="1.5" style="fill:rgb(26,26,26);"/>
            <path d="M100,100L39.998,136.053" style="fill:none;fill-rule:nonzero;stroke:rgb(26,26,26);stroke-width:0.6px;"/>
            <circle cx="39.998" cy="136.053" r="1.5" style="fill:rgb(26,26,26);"/>
            <path d="M100,100L52.456,111.854" style="fill:none;fill-rule:nonzero;stroke:rgb(26,26,26);stroke-width:0.6px;"/>
            <circle cx="52.456" cy="111.854" r="1.5" style="fill:rgb(26,26,26);"/>
            <path d="M100,100L37.038,97.801" style="fill:none;fill-rule:nonzero;stroke:rgb(26,26,26);stroke-width:0.6px;"/>
            <circle cx="37.038" cy="97.801" r="1.5" style="fill:rgb(26,26,26);"/>
            <path d="M100,100L50.014,85.667" style="fill:none;fill-rule:nonzero;stroke:rgb(26,26,26);stroke-width:0.6px;"/>
            <circle cx="50.014" cy="85.667" r="1.5" style="fill:rgb(26,26,26);"/>
            <path d="M100,100L44.029,65.025" style="fill:none;fill-rule:nonzero;stroke:rgb(26,26,26);stroke-width:0.6px;"/>
            <circle cx="44.029" cy="65.025" r="1.5" style="fill:rgb(26,26,26);"/>
            <path d="M100,100L61.949,56.227" style="fill:none;fill-rule:nonzero;stroke:rgb(26,26,26);stroke-width:0.6px;"/>
            <circle cx="61.949" cy="56.227" r="1.5" style="fill:rgb(26,26,26);"/>
            <path d="M100,100L73.839,31.849" style="fill:none;fill-rule:nonzero;stroke:rgb(26,26,26);stroke-width:0.6px;"/>
            <circle cx="73.839" cy="31.849" r="1.5" style="fill:rgb(26,26,26);"/>
            <path d="M100,100L97.122,45.075" style="fill:none;fill-rule:nonzero;stroke:rgb(26,26,26);stroke-width:0.6px;"/>
            <circle cx="97.122" cy="45.075" r="1.5" style="fill:rgb(26,26,26);"/>
            <path d="M100,100L112.682,52.67" style="fill:none;fill-rule:nonzero;stroke:rgb(26,26,26);stroke-width:0.6px;"/>
            <circle cx="112.682" cy="52.67" r="1.5" style="fill:rgb(26,26,26);"/>
            <path d="M100,100L139.577,43.479" style="fill:none;fill-rule:nonzero;stroke:rgb(26,26,26);stroke-width:0.6px;"/>
            <circle cx="139.577" cy="43.479" r="1.5" style="fill:rgb(26,26,26);"/>
            <path d="M100,100L142.328,68.104" style="fill:none;fill-rule:nonzero;stroke:rgb(26,26,26);stroke-width:0.6px;"/>
            <circle cx="142.328" cy="68.104" r="1.5" style="fill:rgb(26,26,26);"/>
            <path d="M100,100L146.33,84.047" style="fill:none;fill-rule:nonzero;stroke:rgb(26,26,26);stroke-width:0.6px;"/>
            <circle cx="146.33" cy="84.047" r="1.5" style="fill:rgb(26,26,26);"/>
            <path d="M100,100L165.638,93.101" style="fill:none;fill-rule:nonzero;stroke:rgb(26,26,26);stroke-width:0.6px;"/>
            <circle cx="165.638" cy="93.101" r="1.5" style="fill:rgb(26,26,26);"/>
            <path d="M100,100L127.554,131.698" style="fill:none;fill-rule:nonzero;stroke:rgb(26,26,26);stroke-width:0.6px;"/>
            <circle cx="127.554" cy="131.698" r="1.5" style="fill:rgb(26,26,26);"/>
            <path d="M100,100L63.809,107.693" style="fill:none;fill-rule:nonzero;stroke:rgb(26,26,26);stroke-width:0.6px;"/>
            <circle cx="63.809" cy="107.693" r="1.5" style="fill:rgb(26,26,26);"/>
        </g>
    </g>
</svg>
