<svg fill="none" height="34" viewBox="0 0 121 34" width="121" xmlns="http://www.w3.org/2000/svg"><g fill="#2e3192"><path d="m54.6709 9.51571c-.0823 1.41669-.6309 2.56599-1.591 3.39469-.9601.8286-2.2494 1.2563-3.8404 1.2563-1.7557.0267-3.1272-.5346-4.1422-1.684-1.0149-1.1494-1.5361-2.69969-1.5361-4.70441v-.80189c0-1.28301.2194-2.40566.6583-3.36792.4663-.96226 1.0973-1.73742 1.9476-2.24528.8504-.534595 1.8379-.80189 2.9901-.80189 1.5636 0 2.8528.374214 3.8129 1.20283.9601.80189 1.5362 1.95126 1.7008 3.44811l-2.798.02673c-.0823-.85534-.3292-1.47012-.7407-1.84434-.4114-.37421-1.0698-.56132-1.9202-.56132-.9326 0-1.6184.34749-2.0848.989-.4663.66824-.6857 1.68396-.6857 3.04717v.98899c0 1.4434.2468 2.48582.6857 3.12732.4389.6683 1.1522.989 2.1123.989.8778 0 1.5087-.2138 1.9476-.588.4115-.401.6583-.989.7132-1.7909z"/><path d="m64.2171 11.1195-4.9103.0267-.9052 2.7532-2.99.0267 4.9651-13.311327 2.6059-.02673 5.212 13.231157-2.99.0267zm-4.1696-2.1651 3.4015-.02673-1.7556-4.94497z"/><path d="m72.9951.534595 3.5661 9.595905 3.4015-9.649364 3.7032-.026729.1097 13.257893-2.8254.0267-.0274-3.6352.2194-6.25474-3.5935 9.91664-1.9202.0268-3.7581-9.83652.3292 6.25472.0274 3.6352-2.798.0267-.1097-13.257816z"/><path d="m88.9876 8.98112.0274 4.67768-2.798.0267-.1097-13.257834 5.3217-.053459c1.015 0 1.9202.160377 2.6883.534591.7681.374212 1.3716.882072 1.8105 1.550312.4114.66824.6309 1.41667.6583 2.29874 0 1.30975-.4389 2.32548-1.3441 3.0739-.9053.74843-2.1671 1.14937-3.7856 1.14937zm-.0274-2.19182 2.4962-.02673c.7407 0 1.3167-.18711 1.7008-.53459.384-.34748.576-.82862.576-1.47013s-.2194-1.1761-.6034-1.57704c-.3841-.40094-.9327-.58805-1.6185-.61478l-2.5786.02673z"/><path d="m108.766.24057.082 8.74057c0 1.44336-.439 2.59276-1.372 3.44806-.932.8554-2.194 1.2831-3.813 1.3098-1.591 0-2.852-.3742-3.7852-1.2028-.9326-.8019-1.4264-1.9246-1.4538-3.36796l-.0823-8.847481 2.7983-.02673.082 8.767301c0 .85534.219 1.49687.658 1.89777.439.401 1.015.5881 1.783.5881 1.564 0 2.359-.8286 2.387-2.43242l-.082-8.820751z"/><path d="m118.202 9.9434c0-.50786-.192-.90881-.576-1.1761-.384-.2673-1.042-.56132-2.03-.85535-.987-.29402-1.756-.58805-2.304-.88208-1.564-.80188-2.332-1.89779-2.359-3.261 0-.7217.192-1.36321.603-1.92453.412-.56132.988-1.015724 1.783-1.336478.768-.320755 1.646-.4811324 2.606-.507862.96 0 1.838.160377 2.606.481132.768.347484 1.372.828618 1.783 1.443398.439.61478.631 1.33648.659 2.13836l-2.798.02673c0-.61478-.192-1.06918-.604-1.41666-.384-.32076-.96-.50787-1.646-.48114-.686 0-1.207.16038-1.591.42768-.384.29402-.576.66824-.548 1.12264 0 .42767.219.80189.685 1.06918.439.29403 1.098.56132 1.975.80189 1.591.4544 2.771 1.01572 3.512 1.71069.74.69497 1.097 1.55032 1.124 2.56604 0 1.14936-.439 2.05816-1.316 2.69966-.878.6683-2.085.989-3.594 1.0157-1.042 0-2.002-.1603-2.853-.5345-.85-.3743-1.536-.8821-1.975-1.5236-.466-.6415-.686-1.39-.686-2.24531l2.826-.02673c0 1.47014.905 2.19184 2.716 2.16514.658 0 1.179-.1337 1.563-.401.247-.2406.439-.6148.439-1.0959z"/><path d="m54.8355 28.9214c-.0823 1.4166-.6309 2.566-1.591 3.3946-.9601.8287-2.2494 1.2563-3.8404 1.2563-1.7556.0268-3.1272-.5346-4.1422-1.6839-1.0149-1.1494-1.5361-2.6997-1.5361-4.7044v-.8019c0-1.283.2194-2.4057.6583-3.3679.4664-.9623 1.0973-1.7375 1.9477-2.2453.8503-.5346 1.8379-.8019 2.99-.8019 1.5636 0 2.8528.3742 3.8129 1.2028.9601.8019 1.5362 1.9513 1.7008 3.4481l-2.798-.0267c-.0823-.8554-.3292-1.4701-.7407-1.8443-.4114-.3743-1.0698-.5614-1.9202-.5614-.9326 0-1.6184.3475-2.0847.989-.4664.6683-.6858 1.684-.6858 3.0472v.989c0 1.4434.2469 2.4858.6858 3.1273.4389.6683 1.1521.989 2.1122.989.8778 0 1.5087-.2138 1.9476-.588.4115-.401.6584-.989.7132-1.7909z"/><path d="m61.3642 25.9811 2.7706-5.9874 3.0723-.0267-4.3891 8.5.0275 4.8113-2.8529.0267-.0274-4.8113-4.5536-8.4465 3.0723-.0268z"/><path d="m68.5512 33.2248-.1097-13.2578 4.773-.0268c1.6459 0 2.9078.2941 3.7581.8821.8504.6148 1.2893 1.4969 1.3168 2.6997 0 .6415-.1646 1.2296-.4938 1.7107-.3292.5079-.823.8553-1.4264 1.0959.6857.1604 1.2618.5079 1.6458 1.0157.4115.5079.6035 1.1494.631 1.8978 0 1.2831-.4115 2.2453-1.2344 2.9136-.823.6682-2.03 1.0157-3.5661 1.0424zm2.7431-7.7248 2.0848-.0267c1.4265-.0268 2.1123-.5881 2.1123-1.6573 0-.588-.1921-1.0424-.5487-1.283-.3566-.2673-.9327-.4009-1.7007-.3742l-1.9751.0267zm.0275 1.9245.0274 3.5818 2.414-.0267c.6583 0 1.1795-.1604 1.5361-.4812.3566-.3207.5487-.7217.5487-1.283 0-1.2028-.6584-1.8176-1.9477-1.8443z"/><path d="m88.9327 27.2909-5.3765.0534.0274 3.5818 6.3092-.0535.0275 2.1919-9.1347.0802-.1097-13.2579 9.1072-.0802.0274 2.2186-6.3092.0534.0275 3.1541 5.3765-.0534z"/><path d="m96.5587 28.1462-2.222.0268.0275 4.8647-2.798.0268-.1372-13.2846 5.0474-.0535c1.6185 0 2.8529.3208 3.7306 1.0157.878.695 1.317 1.684 1.344 2.9403 0 .9088-.192 1.6572-.576 2.272s-1.0148 1.0959-1.8103 1.4701l2.9903 5.3994v.1336l-3.0177.0268zm-2.2494-2.1918 2.2494-.0267c.7132 0 1.2344-.1871 1.6185-.5346.384-.3475.576-.8286.576-1.4434s-.192-1.1227-.5486-1.4701c-.3566-.3475-.9327-.5346-1.6733-.5346l-2.2494.0267z"/></g><path d="m7.29679 26.5157c-1.67332-1.4434-4.22444-1.4166-5.87032.0535-1.920205 1.7107-1.892773 4.6509.05486 6.3349 1.67332 1.4434 4.22444 1.4167 5.87032-.0535 1.9202-1.6839 1.89277-4.6509-.05486-6.3349z" fill="#c1272d"/><path d="m29.9826 25.2594c-.4389-.0534-3.3467-.4009-5.7332-2.4324-.0274-.0267-.0274-.0267-.0549-.0534-2.6334-2.8868-2.7157-7.2437-.192-10.2107.1646-.1871.3292-.3742.5212-.5613 2.414-2.37896 5.6234-2.83337 6.0898-2.88683h.0274s0 0-.0274 0h.0274.0274.0275c1.0424-.10691 2.0848-.58805 2.8254-1.44339 1.4264-1.60378 1.4264-4.00944 0-5.61321-1.7007-1.897798-4.6633-1.951257-6.4189-.18711-.7407.7217-1.1522 1.65724-1.2345 2.59277v.02673.02673.02673s0 0 0-.02673v.02673c-.0548.48113-.4389 3.60849-2.8528 5.98738-.1646.1604-.3566.3475-.5487.4812-2.8254 2.3789-6.995 2.5393-10.0124.3742-.0275-.0267-.0549-.0267-.0549-.0535-.3292-.2405-.6583-.5346-.9052-.882-1.75564-2.19187-2.11225-4.65099-2.13968-5.05193v-.02673.02673-.02673-.02673.02673c-.10972-1.01573-.60349-2.03145-1.48129-2.77988-1.64589-1.38993-4.11472-1.38993-5.7606 0-1.947633 1.65723-2.002496 4.54403-.19202 6.25472.74065.7217 1.70075 1.12264 2.68828 1.20282h-.02743.02743.02743-.02743.02743c.08229 0 .24688.0267.49376.0535 3.9227.6415 7.02242 3.6085 7.73562 7.4041.0549.2405.0549.4009.0823.4811l.0275-.0267c.0823.989.5212 1.9779 1.2892 2.7264.7681.7217 1.7282 1.1493 2.7432 1.2028.0823 0 .2469.0267.4938.0535 3.9227.6415 7.0498 3.6085 7.763 7.4308.0549.2405.0549.4009.0823.4811.0823.989.5487 1.9513 1.3442 2.6997 1.6733 1.5503 4.3341 1.5503 6.0075 0 1.8104-1.684 1.8379-4.4638.0823-6.1478-.823-.6682-1.8105-1.0692-2.798-1.1494z" fill="#2e3192"/><path d="m25.2643 29.9371v.0535c.0275 0 .0275-.0268 0-.0535z" fill="#fff"/><path d="m12.8654 18.0424v.0535c.0274 0 .0274 0 0-.0535z" fill="#fff"/></svg>