<?xml version="1.0" encoding="UTF-8" standalone="no"?>
<!DOCTYPE svg PUBLIC "-//W3C//DTD SVG 1.1//EN" "http://www.w3.org/Graphics/SVG/1.1/DTD/svg11.dtd">
<svg width="100%" height="100%" viewBox="0 0 2551 940" version="1.1" xmlns="http://www.w3.org/2000/svg" xmlns:xlink="http://www.w3.org/1999/xlink" xml:space="preserve" xmlns:serif="http://www.serif.com/" style="fill-rule:evenodd;clip-rule:evenodd;stroke-linejoin:round;stroke-miterlimit:2;">
    <g id="Artboard2" transform="matrix(1,0,0,1,-199.483,-958.34)">
        <g>
            <rect x="7.483" y="958.338" width="2550.63" height="939.924" style="fill:none;"/>
            <g transform="matrix(1,0,0,1,0.482622,1007.26)">
                <path d="M494.185,532.516L436.294,532.516L436.294,343.457L360.184,532.516L335.084,532.516L258.975,343.457L258.975,532.516L201.488,532.516L201.488,262.49L282.051,262.49L347.634,425.639L413.218,262.49L494.185,262.49L494.185,532.516Z" style="fill-rule:nonzero;"/>
                <g transform="matrix(1,0,0,1,-10,0)">
                    <path d="M799.433,532.516L733.849,532.516L717.251,486.769L601.467,486.769L584.464,532.516L518.88,532.516L623.328,262.49L695.389,262.49L799.433,532.516ZM701.462,436.165L659.359,319.976L617.256,436.165L701.462,436.165Z" style="fill-rule:nonzero;"/>
                </g>
                <g transform="matrix(1,0,0,1,-10,0)">
                    <path d="M1043.14,532.516L977.156,532.516L924.122,436.57L882.019,436.57L882.019,532.516L824.533,532.516L824.533,262.49L950.842,262.49C978.641,262.49 1000.7,270.586 1017.03,286.78C1033.36,302.973 1041.53,323.89 1041.53,349.53C1041.53,371.661 1035.79,389.608 1024.32,403.373C1012.85,417.137 998.882,425.909 982.419,429.687L1043.14,532.516ZM942.34,385.965C954.215,385.965 963.931,382.659 971.488,376.046C979.045,369.434 982.824,360.595 982.824,349.53C982.824,338.464 979.045,329.625 971.488,323.013C963.931,316.4 954.215,313.094 942.34,313.094L882.019,313.094L882.019,385.965L942.34,385.965Z" style="fill-rule:nonzero;"/>
                </g>
                <g transform="matrix(1,0,0,1,-58,0)">
                    <path d="M1408.31,507.011C1387.8,527.253 1357.57,537.374 1317.62,537.374C1277.68,537.374 1247.38,527.186 1226.74,506.809C1206.09,486.432 1195.77,459.105 1195.77,424.829L1195.77,262.49L1254.07,262.49L1254.07,422.805C1254.07,442.237 1259.6,457.689 1270.66,469.159C1281.73,480.629 1297.38,486.364 1317.62,486.364C1337.87,486.364 1353.45,480.629 1364.38,469.159C1375.31,457.689 1380.78,442.237 1380.78,422.805L1380.78,262.49L1439.48,262.49L1439.48,424.424C1439.48,459.24 1429.09,486.769 1408.31,507.011Z" style="fill-rule:nonzero;"/>
                </g>
                <g transform="matrix(1,0,0,1,-78,0)">
                    <path d="M1588.46,537.374C1540.42,537.374 1502.37,523.07 1474.3,494.461L1505.47,450.739C1528.68,475.029 1557.29,487.174 1591.29,487.174C1606.14,487.174 1617.68,484.273 1625.91,478.47C1634.14,472.667 1638.26,465.583 1638.26,457.216C1638.26,449.929 1634.41,443.857 1626.72,438.999C1619.03,434.14 1609.44,430.632 1597.97,428.473C1586.5,426.314 1574.02,423.21 1560.53,419.162C1547.03,415.113 1534.55,410.525 1523.08,405.397C1511.61,400.269 1502.03,392.172 1494.34,381.107C1486.64,370.041 1482.8,356.547 1482.8,340.623C1482.8,317.412 1492.11,297.913 1510.73,282.124C1529.35,266.335 1554.18,258.441 1585.22,258.441C1628.13,258.441 1663.22,270.991 1690.48,296.091L1658.5,338.194C1637.18,318.492 1611,308.641 1579.96,308.641C1567.81,308.641 1558.37,311.07 1551.62,315.928C1544.87,320.786 1541.5,327.398 1541.5,335.765C1541.5,342.242 1545.35,347.708 1553.04,352.161C1560.73,356.614 1570.31,359.92 1581.78,362.079C1593.25,364.239 1605.67,367.41 1619.03,371.593C1632.38,375.776 1644.8,380.5 1656.27,385.762C1667.74,391.025 1677.32,399.257 1685.01,410.458C1692.71,421.658 1696.55,435.085 1696.55,450.739C1696.55,476.648 1687.31,497.565 1668.82,513.489C1650.33,529.412 1623.55,537.374 1588.46,537.374Z" style="fill-rule:nonzero;"/>
                </g>
                <g transform="matrix(1,0,0,1,-120,0)">
                    <path d="M2201.79,532.516L2136.2,532.516L2119.61,486.769L2003.82,486.769L1986.82,532.516L1921.24,532.516L2025.68,262.49L2097.74,262.49L2201.79,532.516ZM2103.82,436.165L2061.72,319.976L2019.61,436.165L2103.82,436.165Z" style="fill-rule:nonzero;"/>
                </g>
            </g>
            <g transform="matrix(1,0,0,1,242.188,1006.45)">
                <path d="M1511.14,532.516L1453.65,532.516L1560.65,262.49L1618.14,262.49L1511.14,532.516Z" style="fill-rule:nonzero;"/>
            </g>
            <g transform="matrix(1,0,0,1,403.737,1007.34)">
                <rect x="651.262" y="262.49" width="57.487" height="270.026"/>
            </g>
        </g>
    </g>
</svg>
