<?xml version="1.0" encoding="UTF-8" standalone="no"?>
<!DOCTYPE svg PUBLIC "-//W3C//DTD SVG 1.1//EN" "http://www.w3.org/Graphics/SVG/1.1/DTD/svg11.dtd">
<svg width="100%" height="100%" viewBox="0 0 2551 940" version="1.1" xmlns="http://www.w3.org/2000/svg" xmlns:xlink="http://www.w3.org/1999/xlink" xml:space="preserve" xmlns:serif="http://www.serif.com/" style="fill-rule:evenodd;clip-rule:evenodd;stroke-linejoin:round;stroke-miterlimit:2;">
    <g id="Artboard2" transform="matrix(1,0,0,1,-199.483,-958.34)">
        <g>
            <clipPath id="_clip1">
                <rect x="200.59" y="958.338" width="2357.52" height="939.924"/>
            </clipPath>
            <g clip-path="url(#_clip1)">
                <rect x="7.483" y="958.338" width="2550.63" height="939.924" style="fill:none;"/>
                <g transform="matrix(1,0,0,1,0.482622,1007.26)">
                    <path d="M494.185,532.516L436.294,532.516L436.294,343.457L360.184,532.516L335.084,532.516L258.975,343.457L258.975,532.516L201.488,532.516L201.488,262.49L282.051,262.49L347.634,425.639L413.218,262.49L494.185,262.49L494.185,532.516Z" style="fill-rule:nonzero;"/>
                    <g transform="matrix(1,0,0,1,-1306,0)">
                        <path d="M2201.79,532.516L2136.2,532.516L2119.61,486.769L2003.82,486.769L1986.82,532.516L1921.24,532.516L2025.68,262.49L2097.74,262.49L2201.79,532.516ZM2103.82,436.165L2061.72,319.976L2019.61,436.165L2103.82,436.165Z" style="fill-rule:nonzero;"/>
                    </g>
                </g>
                <g transform="matrix(1,0,0,1,-943.812,1006.45)">
                    <path d="M1511.14,532.516L1453.65,532.516L1560.65,262.49L1618.14,262.49L1511.14,532.516Z" style="fill-rule:nonzero;"/>
                </g>
            </g>
        </g>
    </g>
</svg>
