<?xml version="1.0" encoding="UTF-8" standalone="no"?>
<!DOCTYPE svg PUBLIC "-//W3C//DTD SVG 1.1//EN" "http://www.w3.org/Graphics/SVG/1.1/DTD/svg11.dtd">
<svg width="100%" height="100%" viewBox="0 0 189 18" version="1.1" xmlns="http://www.w3.org/2000/svg" xmlns:xlink="http://www.w3.org/1999/xlink" xml:space="preserve" xmlns:serif="http://www.serif.com/" style="fill-rule:evenodd;clip-rule:evenodd;stroke-linejoin:round;stroke-miterlimit:2;">
    <g id="Group">
        <path id="Path" d="M178.209,0.666L169.769,13.064C168.659,14.694 166.856,16.266 164.679,16.433L164.679,16.814L174.066,16.814C176.558,16.814 178.376,15.167 179.606,13.353L188.273,0.666L178.209,0.666Z" style="fill:rgb(113,113,113);fill-rule:nonzero;"/>
        <path id="path1" d="M22.779,16.814L22.779,2.028L27.028,2.028L27.028,16.814L22.778,16.814L22.779,16.814ZM120.776,16.814L110.566,8.034L110.566,16.814L106.978,16.814L106.978,2.028L110.026,2.028L120.1,10.67L120.1,2.028L123.688,2.028L123.688,16.814L120.776,16.814ZM142.98,6.798C141.06,5.838 138.897,5.061 136.03,5.061C132.606,5.061 130.053,6.859 130.053,9.359C130.053,11.92 132.652,13.735 135.999,13.735C138.763,13.735 140.953,13.018 143.115,11.752L143.115,15.411C141.208,16.371 138.672,17.087 135.819,17.087C129.994,17.087 125.413,14.07 125.413,9.359C125.413,4.725 130.083,1.752 135.803,1.752C138.506,1.752 140.953,2.27 142.98,3.11L142.98,6.798ZM50.675,16.815L50.675,2.028L64.878,2.028L64.878,5.198L54.924,5.198L54.924,8.872L64.654,8.872L64.654,12.043L54.924,12.043L54.924,16.815L50.675,16.815ZM145.549,16.814L145.549,2.028L160.292,2.028L160.292,5.198L149.797,5.198L149.797,7.76L160.127,7.76L160.127,10.93L149.797,10.93L149.797,13.644L160.247,13.644L160.247,16.814L145.549,16.814ZM79.637,11.265L85.507,16.815L80.973,16.815C79.967,16.815 79.307,16.495 78.781,15.975L74.787,12.042C74.693,11.958 74.569,11.914 74.443,11.921L71.725,11.921L71.725,16.814L67.476,16.814L67.476,2.028L76.68,2.028C81.454,2.028 83.466,4.208 83.466,6.616C83.466,9.421 81.003,10.761 79.637,11.266L79.637,11.265ZM76.245,8.826C77.925,8.826 78.736,7.958 78.736,6.982C78.736,6.006 78.016,5.198 76.245,5.198L71.725,5.198L71.725,8.826L76.245,8.826ZM43.167,11.266L49.037,16.814L44.504,16.814C43.498,16.814 42.837,16.494 42.312,15.975L38.318,12.042C38.224,11.957 38.1,11.914 37.973,11.921L35.256,11.921L35.256,16.814L31.006,16.814L31.006,2.028L40.21,2.028C44.984,2.028 46.997,4.208 46.997,6.616C46.997,9.421 44.534,10.761 43.167,11.266ZM39.775,8.826C41.457,8.826 42.268,7.958 42.268,6.982C42.268,6.006 41.547,5.198 39.775,5.198L35.256,5.198L35.256,8.826L39.775,8.826ZM16.127,16.814L14.266,13.567L6.129,13.567L4.432,16.814L0.378,16.814L8.486,2.043L12.18,2.043L21.369,16.814L16.127,16.814ZM7.75,10.487L12.495,10.487L10.032,5.975L7.75,10.487ZM100.972,16.814L99.155,13.567L91.23,13.567L89.593,16.814L85.643,16.814L93.54,2.043L97.128,2.043L106.062,16.814L100.972,16.814ZM92.82,10.487L97.444,10.487L95.042,5.975L92.82,10.487Z" style="fill:white;fill-rule:nonzero;"/>
    </g>
</svg>
