<?xml version="1.0" encoding="UTF-8" standalone="no"?>
<!DOCTYPE svg PUBLIC "-//W3C//DTD SVG 1.1//EN" "http://www.w3.org/Graphics/SVG/1.1/DTD/svg11.dtd">
<svg width="100%" height="100%" viewBox="0 0 926 617" version="1.1" xmlns="http://www.w3.org/2000/svg" xmlns:xlink="http://www.w3.org/1999/xlink" xml:space="preserve" xmlns:serif="http://www.serif.com/" style="fill-rule:evenodd;clip-rule:evenodd;stroke-linejoin:round;stroke-miterlimit:2;">
    <g transform="matrix(5.75418,0,0,5.75418,9.45167,206.121)">
        <g id="Fill_1" transform="matrix(1,0,0,1,68.463,1.306)">
            <path d="M4.775,36.352C3.334,36.352 1.747,36.245 0.908,35.452C0.158,34.703 -0.164,33.623 0.053,32.586C0.16,32.161 0.328,31.754 0.553,31.378C0.653,31.178 0.764,30.978 0.853,30.778C1.689,28.949 2.547,27.03 3.377,25.178C4.386,22.922 5.429,20.589 6.434,18.415L11.61,18.415C11.336,19.228 11.005,20.02 10.62,20.787C10.482,21.079 10.34,21.38 10.204,21.681C8.611,25.221 7.122,28.502 5.78,31.433C6.051,31.409 6.339,31.398 6.658,31.398C7.281,31.398 7.932,31.441 8.558,31.482L8.566,31.482C9.196,31.523 9.847,31.565 10.448,31.565C11.321,31.636 12.196,31.45 12.966,31.032C13.786,30.242 14.388,29.252 14.714,28.161C14.84,27.861 14.958,27.569 15.077,27.31C15.605,26.158 16.177,24.878 16.726,23.64C17.532,21.83 18.365,19.958 19.098,18.415L24.324,18.415C23.099,21.206 21.824,24.015 20.582,26.726C19.882,28.267 19.154,29.86 18.445,31.434C18.695,31.417 18.954,31.41 19.237,31.41C19.837,31.41 20.479,31.444 21.099,31.478L21.12,31.478C21.747,31.512 22.395,31.547 23,31.547C24.024,31.652 25.055,31.418 25.934,30.881C26.643,30.145 27.167,29.251 27.463,28.273C27.609,27.916 27.746,27.579 27.895,27.261C28.855,25.197 29.875,22.898 30.86,20.674L30.86,20.669C31.204,19.894 31.539,19.136 31.86,18.415L37.1,18.415C36.7,19.515 36.166,20.659 35.651,21.762C35.234,22.656 34.802,23.58 34.433,24.497L38.453,24.497C38.904,23.604 39.291,22.724 39.701,21.797C39.883,21.384 40.071,20.957 40.264,20.529C40.638,19.247 41.843,18.374 43.178,18.419C43.701,18.377 44.278,18.357 45.009,18.357C45.632,18.357 46.275,18.371 46.955,18.387C47.67,18.403 48.409,18.419 49.162,18.419C49.915,18.419 50.681,18.401 51.41,18.384C52.096,18.368 52.743,18.352 53.361,18.352C54.083,18.352 54.65,18.373 55.143,18.419C56.141,18.567 56.986,19.24 57.354,20.179C57.903,22.279 57.066,23.9 56.254,25.469C56.054,25.863 55.859,26.235 55.691,26.611C55.026,28.111 54.367,29.273 52.474,29.477C51.901,29.534 51.326,29.56 50.751,29.555C50.159,29.555 49.559,29.537 48.924,29.517C48.289,29.497 47.637,29.477 46.994,29.477L41.523,29.477C41.466,29.742 41.35,29.992 41.183,30.206C40.951,30.575 40.712,30.956 40.842,31.206C40.929,31.373 41.168,31.464 41.574,31.485C42.652,31.542 43.847,31.569 45.227,31.569C46.472,31.569 47.727,31.547 48.95,31.526C50.173,31.505 51.332,31.485 52.481,31.485C52.824,31.485 53.193,31.495 53.581,31.506C53.992,31.518 54.418,31.53 54.836,31.53C55.809,31.624 56.789,31.435 57.657,30.984C58.411,30.148 58.982,29.164 59.332,28.094C59.449,27.818 59.559,27.558 59.669,27.313C59.912,26.773 60.151,26.236 60.385,25.713C60.749,24.895 61.094,24.123 61.426,23.394C63.332,19.232 65.306,14.865 67.216,10.641C68.82,7.09 70.473,3.433 72.036,0.009L77.266,0.009C74.539,6.119 71.734,12.303 69.022,18.283C67.722,21.143 66.383,24.101 65.049,27.053C64.938,27.298 64.811,27.558 64.677,27.833C64.502,28.192 64.321,28.562 64.145,28.962C64.1,29.062 64.045,29.19 63.977,29.323C63.682,29.832 63.483,30.392 63.39,30.973C63.467,31.44 64.19,31.479 64.866,31.479L66.66,31.479C68.194,31.479 69.253,31.398 69.975,30.319C70.208,29.934 70.4,29.526 70.547,29.101C70.637,28.871 70.729,28.634 70.832,28.409C75.432,18.309 79.885,8.509 83.7,0.06C84.282,0.018 84.921,0 85.771,0C86.171,0 86.571,0 86.962,0.008C87.375,0.008 87.778,0.016 88.175,0.016C88.468,0.016 88.73,0.016 88.975,0.009C87.1,4.179 85.2,8.383 83.354,12.449L83.354,12.454C80.897,17.88 78.354,23.491 75.854,29.064C75.78,29.23 75.692,29.398 75.607,29.564C75.321,30.02 75.15,30.539 75.107,31.076C75.451,31.413 75.929,31.575 76.407,31.517C76.598,31.517 76.798,31.507 76.991,31.497C77.184,31.487 77.38,31.477 77.566,31.477L86.011,31.477L86.011,36.2C79.48,36.254 72.721,36.261 67.563,36.261L51.224,36.261C49.93,36.261 48.611,36.285 47.335,36.308C46.059,36.331 44.755,36.355 43.474,36.355C42.036,36.355 40.789,36.324 39.661,36.261C38.28,36.21 36.998,35.523 36.192,34.401C35.482,32.907 35.482,31.17 36.192,29.676C35.762,29.636 35.276,29.617 34.619,29.617C34.319,29.617 34.001,29.617 33.698,29.625C33.395,29.633 33.084,29.632 32.78,29.632C32.536,29.632 32.32,29.632 32.122,29.625C31.829,30.155 31.611,30.639 31.4,31.107C31.161,31.671 30.882,32.218 30.564,32.742C29.317,34.766 27.156,36.059 24.783,36.2C24.205,36.246 23.545,36.267 22.643,36.267C22.259,36.267 21.875,36.267 21.469,36.26C21.063,36.253 20.633,36.253 20.207,36.253C19.807,36.253 19.382,36.265 18.929,36.277C18.446,36.29 17.947,36.304 17.454,36.304C16.333,36.39 15.208,36.199 14.178,35.749C12.886,36.184 11.519,36.356 10.159,36.256L8.749,36.256C8.102,36.256 7.417,36.281 6.754,36.306C6.091,36.331 5.416,36.352 4.775,36.352ZM44.456,25.085C45.056,25.085 45.662,25.085 46.25,25.092C46.856,25.092 47.481,25.1 48.091,25.1C49.391,25.1 50.37,25.082 51.276,25.042C51.355,24.873 51.434,24.706 51.513,24.542C51.765,24.01 52.026,23.46 52.277,22.842L44.039,22.842C43.921,23.145 43.787,23.442 43.639,23.732C43.404,24.168 43.218,24.628 43.085,25.105C43.54,25.087 43.989,25.085 44.456,25.085Z" style="fill:white;fill-rule:nonzero;"/>
        </g>
        <path id="Fill_8" d="M0,37.457C7.844,26.337 15.717,15.133 23.727,3.879C24.818,2.344 25.89,0.292 28.05,0.057C29.155,0.001 30.262,0.001 31.367,0.057C32.456,-0.007 33.547,-0.007 34.636,0.057C36.063,0.363 37.106,1.614 37.149,3.073C37.268,4.367 37.149,5.816 37.149,7.245L37.149,19.661C40.249,19.753 43.877,19.712 47.202,19.712C48.305,19.617 49.414,19.617 50.517,19.712C51.383,19.987 51.908,20.883 51.725,21.773C51.455,22.755 51.067,23.7 50.569,24.588C49.369,27.341 48.05,30.04 46.849,32.731C49.196,32.851 51.759,32.75 54.189,32.781C56.275,28.516 58.176,24.068 60.171,19.711L65.2,19.711C65.063,20.142 64.896,20.562 64.7,20.97C65.209,20.848 65.629,20.5 66.209,20.315C67.964,19.759 70.428,20.315 72.49,20.165C71.963,21.529 71.342,22.801 70.782,24.138C68.092,24.295 64.502,23.77 63.041,25.238C62.426,26.133 61.951,27.116 61.631,28.154C60.752,30.127 59.821,32.062 58.916,34.087C58.069,35.98 57.667,37.611 54.946,37.604C53.27,37.604 51.374,37.555 49.465,37.555C47.595,37.555 45.659,37.697 43.988,37.555C42.382,37.479 41.102,36.137 41.102,34.529C41.102,34.244 41.142,33.959 41.222,33.685C41.51,32.894 41.847,32.121 42.229,31.371C43.267,29.108 44.219,27.037 45.295,24.585C42.695,24.467 39.881,24.568 37.195,24.535C37.079,28.742 37.179,33.164 37.147,37.454C35.654,37.571 33.947,37.472 32.371,37.505C32.254,33.282 32.354,28.842 32.321,24.535L18.9,24.535C19.942,22.847 21.169,21.343 22.27,19.708L32.27,19.708C32.362,16.208 32.322,12.521 32.322,8.75C32.322,7.555 32.549,5.497 31.922,5.08C31.101,4.822 30.218,4.84 29.408,5.131C28.726,5.622 28.161,6.257 27.751,6.991C24.363,11.711 20.876,16.545 17.545,21.217C13.383,27.056 9.645,32.387 5.935,37.504C3.91,37.535 2.035,37.416 0.002,37.453" style="fill:white;fill-rule:nonzero;"/>
        <g id="Fill_10" transform="matrix(1,0,0,1,48.838,10.569)">
            <path d="M0.073,3.513C0.001,3.132 -0.016,2.743 0.023,2.357C0.27,0.98 1.479,-0.031 2.877,-0.031C3.101,-0.031 3.324,-0.005 3.542,0.046C5.074,0.366 6.085,1.873 5.8,3.412C5.603,4.613 4.683,5.576 3.492,5.826C3.291,5.87 3.085,5.893 2.879,5.893C1.493,5.893 0.299,4.88 0.073,3.513" style="fill:white;fill-rule:nonzero;"/>
        </g>
    </g>
</svg>
