<?xml version="1.0" encoding="UTF-8" standalone="no"?>
<!DOCTYPE svg PUBLIC "-//W3C//DTD SVG 1.1//EN" "http://www.w3.org/Graphics/SVG/1.1/DTD/svg11.dtd">
<svg width="100%" height="100%" viewBox="0 0 120 120" version="1.1" xmlns="http://www.w3.org/2000/svg" xmlns:xlink="http://www.w3.org/1999/xlink" xml:space="preserve" xmlns:serif="http://www.serif.com/" style="fill-rule:evenodd;clip-rule:evenodd;stroke-linejoin:round;stroke-miterlimit:2;">
    <g transform="matrix(0.255752,0,0,0.255752,59.8296,60.3887)">
        <g transform="matrix(1,0,0,1,-192.95,-179.15)">
            <rect x="0" y="0" width="385.9" height="358.3" style="fill:rgb(119,119,119);"/>
            <g>
                <path d="M38.5,285.3L57.7,285.3L57.7,290.1L44.1,290.1L44.1,299.9L55.8,299.9L55.8,304.6L44.1,304.6L44.1,319.8L38.5,319.8L38.5,285.3Z" style="fill:white;fill-rule:nonzero;"/>
                <path d="M62.3,295L67.4,295L67.4,297.8C69.1,295.9 71.3,294.5 74.3,294.5C75.1,294.5 75.8,294.6 76.5,294.8L76.5,299.8C75.7,299.6 74.9,299.5 73.9,299.5C70.7,299.5 68.7,301.2 67.4,303.3L67.4,319.9L62.3,319.9L62.3,295Z" style="fill:white;fill-rule:nonzero;"/>
                <path d="M79.5,313.4C79.5,309.7 82.4,306.9 87.7,306.1L95.7,304.8L95.7,303.5C95.7,300.4 93.4,298.6 90.2,298.6C87.5,298.6 85.4,299.8 83.9,301.9L80.1,299C82.3,296 85.9,294.2 90.3,294.2C97,294.2 100.7,298.1 100.7,303.6L100.7,320L95.6,320L95.6,317C93.8,319.2 90.7,320.5 87.7,320.5C82.8,320.6 79.5,317.7 79.5,313.4M88.7,316.4C91.8,316.4 94.2,314.9 95.7,312.6L95.7,308.3L89,309.4C85.9,309.9 84.6,311.3 84.6,313.1C84.6,315.1 86.1,316.4 88.7,316.4" style="fill:white;fill-rule:nonzero;"/>
                <path d="M107.9,295L113,295L113,297.4C114.9,295.4 117.3,294 120.9,294C126.4,294 130.6,297.7 130.6,304.9L130.6,319.8L125.5,319.8L125.5,305.1C125.5,301.2 123.3,298.8 119.8,298.8C116.4,298.8 114.4,300.9 113.1,303.1L113.1,319.9L108,319.9L108,295L107.9,295Z" style="fill:white;fill-rule:nonzero;"/>
                <path d="M156.5,312.7L160.5,315.8C158.2,318.9 154.6,320.8 150,320.8C141.7,320.8 136.4,314.6 136.4,307.4C136.4,300.2 141.6,294 150,294C154.5,294 158.2,296 160.5,299L156.5,302.1C155.1,300.2 152.9,298.8 150,298.8C145.2,298.8 141.8,302.5 141.8,307.4C141.8,312.3 145.2,316 150.1,316C152.8,316 155.1,314.6 156.5,312.7" style="fill:white;fill-rule:nonzero;"/>
                <path d="M177.3,320.8C168.7,320.8 163.6,314.6 163.6,307.4C163.6,300 168.3,294 176.2,294C183,294 187.5,298.7 187.5,305C187.5,306.1 187.4,307.3 187.2,308L168.9,308C169.2,313.4 172.5,316.2 177.3,316.2C180.3,316.2 182.8,314.9 184.3,312.8L188,315.8C185.7,318.9 181.9,320.8 177.3,320.8M169.1,304.2L182.5,304.2C182.4,301.1 180.2,298.2 176.2,298.2C172.5,298.2 169.9,300.4 169.1,304.2" style="fill:white;fill-rule:nonzero;"/>
                <path d="M198.8,285.3L226.7,285.3L226.7,290.5L215.6,290.5L215.6,319.8L209.9,319.8L209.9,290.5L198.8,290.5L198.8,285.3Z" style="fill:white;fill-rule:nonzero;"/>
                <path d="M229.1,295L234.2,295L234.2,297.8C235.9,295.9 238.1,294.5 241.1,294.5C241.9,294.5 242.6,294.6 243.3,294.8L243.3,299.8C242.5,299.6 241.7,299.5 240.7,299.5C237.5,299.5 235.5,301.2 234.2,303.3L234.2,319.9L229.1,319.9L229.1,295Z" style="fill:white;fill-rule:nonzero;"/>
                <path d="M246.3,313.4C246.3,309.7 249.2,306.9 254.5,306.1L262.5,304.8L262.5,303.5C262.5,300.4 260.2,298.6 257,298.6C254.3,298.6 252.2,299.8 250.7,301.9L246.9,299C249.1,296 252.7,294.2 257.1,294.2C263.8,294.2 267.5,298.1 267.5,303.6L267.5,320L262.4,320L262.4,317C260.6,319.2 257.5,320.5 254.5,320.5C249.6,320.6 246.3,317.7 246.3,313.4M255.5,316.4C258.6,316.4 261,314.9 262.5,312.6L262.5,308.3L255.8,309.4C252.7,309.9 251.4,311.3 251.4,313.1C251.4,315.1 252.9,316.4 255.5,316.4" style="fill:white;fill-rule:nonzero;"/>
                <path d="M277.1,295L284.4,314.3L291.6,295L297.1,295L287.7,319.8L281,319.8L271.6,295L277.1,295Z" style="fill:white;fill-rule:nonzero;"/>
                <path d="M299.8,313.4C299.8,309.7 302.7,306.9 308,306.1L316,304.8L316,303.5C316,300.4 313.7,298.6 310.5,298.6C307.8,298.6 305.7,299.8 304.2,301.9L300.4,299C302.6,296 306.2,294.2 310.6,294.2C317.3,294.2 321,298.1 321,303.6L321,320L316,320L316,317C314.2,319.2 311.1,320.5 308.1,320.5C303.1,320.6 299.8,317.7 299.8,313.4M309,316.4C312.1,316.4 314.5,314.9 316,312.6L316,308.3L309.3,309.4C306.2,309.9 304.9,311.3 304.9,313.1C304.9,315.1 306.4,316.4 309,316.4" style="fill:white;fill-rule:nonzero;"/>
                <rect x="329" y="295" width="5.1" height="24.8" style="fill:white;"/>
                <rect x="342.4" y="282.9" width="5.1" height="37" style="fill:white;"/>
                <path d="M328.5,287.4C328.5,285.8 329.9,284.4 331.5,284.4C333.1,284.4 334.5,285.8 334.5,287.4C334.5,289 333.1,290.4 331.5,290.4C329.9,290.4 328.5,289 328.5,287.4" style="fill:white;fill-rule:nonzero;"/>
            </g>
            <g>
                <path d="M290.5,193.9C290.5,204 282.3,212.3 272.1,212.3C262,212.3 253.7,204.1 253.7,193.9C253.7,183.8 261.9,175.5 272.1,175.5C282.3,175.6 290.5,183.8 290.5,193.9" style="fill:white;fill-rule:nonzero;"/>
                <path d="M169.5,125.4C169.5,135.5 161.3,143.8 151.1,143.8C141,143.8 132.7,135.6 132.7,125.4C132.7,115.3 140.9,107 151.1,107C161.3,107 169.5,115.2 169.5,125.4" style="fill:rgb(194,194,194);fill-rule:nonzero;"/>
                <path d="M255.8,173.8C255.8,183.9 247.6,192.2 237.4,192.2C227.3,192.2 219,184 219,173.8C219,163.7 227.2,155.4 237.4,155.4C247.6,155.5 255.8,163.7 255.8,173.8" style="fill:rgb(173,173,173);fill-rule:nonzero;"/>
                <path d="M211.4,196C211.4,206.1 203.2,214.4 193,214.4C182.9,214.4 174.6,206.2 174.6,196C174.6,185.9 182.8,177.6 193,177.6C203.2,177.7 211.4,185.9 211.4,196" style="fill:rgb(194,194,194);fill-rule:nonzero;"/>
                <path d="M211.4,239.3C211.4,249.4 203.2,257.7 193,257.7C182.9,257.7 174.6,249.5 174.6,239.3C174.6,229.2 182.8,220.9 193,220.9C203.2,221 211.4,229.2 211.4,239.3" style="fill:white;fill-rule:nonzero;"/>
                <path d="M290.5,102.5C290.5,112.6 282.3,120.9 272.1,120.9C262,120.9 253.7,112.7 253.7,102.5C253.7,92.4 261.9,84.1 272.1,84.1C282.3,84.2 290.5,92.4 290.5,102.5" style="fill:white;fill-rule:nonzero;"/>
                <path d="M255.8,125.4C255.8,135.5 247.6,143.8 237.4,143.8C227.3,143.8 219,135.6 219,125.4C219,115.3 227.2,107 237.4,107C247.6,107 255.8,115.2 255.8,125.4" style="fill:white;fill-rule:nonzero;"/>
                <path d="M166.8,175.5C166.8,185.6 158.6,193.9 148.4,193.9C138.3,193.9 130,185.7 130,175.5C130,165.4 138.2,157.1 148.4,157.1C158.6,157.1 166.8,165.3 166.8,175.5" style="fill:white;fill-rule:nonzero;"/>
                <path d="M131.8,98.5C134,108.4 127.8,118.2 117.9,120.4C108,122.6 98.2,116.4 96,106.5C93.8,96.6 100,86.8 109.9,84.6C119.8,82.4 129.6,88.6 131.8,98.5" style="fill:white;fill-rule:nonzero;"/>
                <path d="M130,138.2C129.2,143.9 123.9,147.9 118.2,147.1C112.5,146.3 108.5,141 109.3,135.3C110.1,129.6 115.4,125.6 121.1,126.4C126.8,127.2 130.8,132.5 130,138.2" style="fill:rgb(107,107,107);fill-rule:nonzero;"/>
                <path d="M235.3,213.9C234.4,220.5 228.3,225 221.7,224.1C215.1,223.2 210.6,217.1 211.5,210.5C212.4,203.9 218.5,199.4 225.1,200.3C231.6,201.2 236.2,207.3 235.3,213.9" style="fill:rgb(107,107,107);fill-rule:nonzero;"/>
                <path d="M270.9,137.8C270.3,141.8 266.7,144.5 262.7,143.9C258.7,143.3 256,139.7 256.5,135.7C257.1,131.7 260.7,129 264.7,129.6C268.7,130.2 271.4,133.8 270.9,137.8" style="fill:rgb(107,107,107);fill-rule:nonzero;"/>
                <path d="M199.4,103.7C198.6,109.4 193.3,113.4 187.6,112.6C181.9,111.8 177.9,106.5 178.7,100.8C179.5,95.1 184.8,91.1 190.5,91.9C196.2,92.7 200.2,98 199.4,103.7" style="fill:rgb(107,107,107);fill-rule:nonzero;"/>
                <path d="M229.4,90.1C228.6,95.8 223.3,99.8 217.6,99C211.9,98.2 207.9,92.9 208.7,87.2C209.5,81.5 214.8,77.5 220.5,78.3C226.3,79.1 230.2,84.4 229.4,90.1" style="fill:rgb(194,194,194);fill-rule:nonzero;"/>
                <path d="M161.5,205C160.7,210.7 155.4,214.7 149.7,213.9C144,213.1 140,207.8 140.8,202.1C141.6,196.4 146.9,192.4 152.6,193.2C158.3,194 162.3,199.3 161.5,205" style="fill:rgb(224,224,224);fill-rule:nonzero;"/>
                <path d="M264.2,158.1C263.4,163.8 258.1,167.8 252.4,167C246.7,166.2 242.7,160.9 243.5,155.2C244.3,149.5 249.6,145.5 255.3,146.3C261.1,147 265.1,152.3 264.2,158.1" style="fill:rgb(224,224,224);fill-rule:nonzero;"/>
                <path d="M252.3,206.6C255.4,211.5 253.9,217.9 249,221C244.1,224.1 237.7,222.6 234.6,217.7C231.5,212.8 233,206.4 237.9,203.3C242.8,200.3 249.2,201.7 252.3,206.6" style="fill:white;fill-rule:nonzero;"/>
                <path d="M172.5,83.9C171.7,89.6 166.4,93.6 160.7,92.8C155,92 151,86.7 151.8,81C152.6,75.3 157.9,71.3 163.6,72.1C169.3,72.9 173.3,78.2 172.5,83.9" style="fill:rgb(224,224,224);fill-rule:nonzero;"/>
                <path d="M212.3,57.8C212.3,68.4 203.7,77.1 193,77.1C182.4,77.1 173.7,68.5 173.7,57.8C173.7,47.2 182.3,38.5 193,38.5C203.7,38.5 212.3,47.1 212.3,57.8" style="fill:rgb(173,173,173);fill-rule:nonzero;"/>
                <path d="M132.1,193.8C132.1,203.9 123.9,212.2 113.7,212.2C103.5,212.2 95.3,204 95.3,193.8C95.3,183.7 103.5,175.4 113.7,175.4C123.9,175.4 132.1,183.7 132.1,193.8" style="fill:rgb(173,173,173);fill-rule:nonzero;"/>
                <path d="M222.6,144.4C222.6,162.1 208.3,176.4 190.6,176.4C172.9,176.4 158.6,162.1 158.6,144.4C158.6,126.7 172.9,112.4 190.6,112.4C208.2,112.3 222.6,126.7 222.6,144.4" style="fill:rgb(173,173,173);fill-rule:nonzero;"/>
            </g>
        </g>
    </g>
</svg>
