<?xml version="1.0" encoding="UTF-8" standalone="no"?>
<!DOCTYPE svg PUBLIC "-//W3C//DTD SVG 1.1//EN" "http://www.w3.org/Graphics/SVG/1.1/DTD/svg11.dtd">
<svg width="100%" height="100%" viewBox="0 0 1788 1788" version="1.1" xmlns="http://www.w3.org/2000/svg" xmlns:xlink="http://www.w3.org/1999/xlink" xml:space="preserve" xmlns:serif="http://www.serif.com/" style="fill-rule:evenodd;clip-rule:evenodd;stroke-linejoin:round;stroke-miterlimit:2;">
    <g id="Artboard3" transform="matrix(1,0,0,1,-3593.2,117.368)">
        <g>
            <rect x="3593.2" y="-117.367" width="1787.57" height="1787.57" style="fill:white;"/>
            <g transform="matrix(2.69557,0,0,2.69557,1438.26,-1342.13)">
                <g transform="matrix(1.00007,0,0,0.242954,305.522,596.729)">
                    <rect x="831.467" y="98.664" width="49.536" height="203.904" style="fill:rgb(255,0,0);fill-rule:nonzero;"/>
                </g>
                <g transform="matrix(1.00007,0,0,0.242954,20.2195,597.184)">
                    <rect x="831.467" y="98.664" width="49.536" height="203.904" style="fill:rgb(0,5,146);fill-rule:nonzero;"/>
                </g>
            </g>
            <g transform="matrix(1.43277,0,0,1.43277,-1420.21,5.73085)">
                <g transform="matrix(1.67311,0,0,1.67311,-2761.02,369.99)">
                    <g transform="matrix(1.12527,0,0,1.12527,3193.12,-126.128)">
                        <g>
                            <text x="518.411px" y="302.568px" style="font-family:'AvenirNext-Bold', 'Avenir Next', sans-serif;font-weight:700;font-size:288px;">IC</text>
                        </g>
                    </g>
                </g>
                <g transform="matrix(1.67311,0,0,1.67311,-2223.61,370.731)">
                    <g transform="matrix(1.12527,0,0,1.12527,3193.12,-126.128)">
                        <g>
                            <text x="518.411px" y="302.568px" style="font-family:'AvenirNext-Bold', 'Avenir Next', sans-serif;font-weight:700;font-size:288px;">IA</text>
                        </g>
                    </g>
                </g>
            </g>
        </g>
    </g>
</svg>
