<?xml version="1.0" encoding="UTF-8" standalone="no"?>
<!DOCTYPE svg PUBLIC "-//W3C//DTD SVG 1.1//EN" "http://www.w3.org/Graphics/SVG/1.1/DTD/svg11.dtd">
<svg width="100%" height="100%" viewBox="0 0 2481 2481" version="1.1" xmlns="http://www.w3.org/2000/svg" xmlns:xlink="http://www.w3.org/1999/xlink" xml:space="preserve" xmlns:serif="http://www.serif.com/" style="fill-rule:evenodd;clip-rule:evenodd;stroke-linejoin:round;stroke-miterlimit:2;">
    <g transform="matrix(19.0716,0,0,19.0716,0,0)">
        <g>
            <rect x="20" y="20" width="10" height="10"/>
            <rect x="100" y="20" width="10" height="10"/>
            <rect x="20" y="40" width="10" height="10"/>
            <rect x="40" y="40" width="10" height="10"/>
            <rect x="80" y="40" width="10" height="10"/>
            <rect x="100" y="40" width="10" height="10"/>
            <rect x="20" y="60" width="10" height="10"/>
            <rect x="40" y="60" width="10" height="10"/>
            <rect x="60" y="60" width="10" height="10"/>
            <rect x="80" y="60" width="10" height="10"/>
            <rect x="100" y="60" width="10" height="10"/>
            <rect x="20" y="80" width="10" height="10"/>
            <rect x="40" y="80" width="10" height="10"/>
            <rect x="80" y="80" width="10" height="10"/>
            <rect x="100" y="80" width="10" height="10"/>
            <rect x="20" y="100" width="10" height="10"/>
            <rect x="100" y="100" width="10" height="10"/>
        </g>
    </g>
</svg>
